<svg xmlns="http://www.w3.org/2000/svg" xmlns:xlink="http://www.w3.org/1999/xlink" width="375" zoomAndPan="magnify" viewBox="0 0 281.25 281.249989" height="375" preserveAspectRatio="xMidYMid meet" version="1.0"><defs><clipPath id="786a454751"><path d="M 0 0 L 280.503906 0 L 280.503906 280.503906 L 0 280.503906 Z M 0 0 " clip-rule="nonzero"/></clipPath><clipPath id="7c6157788d"><path d="M 104 83.609375 L 221.882812 83.609375 L 221.882812 191.457031 L 104 191.457031 Z M 104 83.609375 " clip-rule="nonzero"/></clipPath><clipPath id="bf71899af8"><path d="M 60.914062 118 L 121 118 L 121 191.457031 L 60.914062 191.457031 Z M 60.914062 118 " clip-rule="nonzero"/></clipPath><clipPath id="113b81a9d3"><path d="M 69 25.808594 L 95 25.808594 L 95 48.289062 L 69 48.289062 Z M 69 25.808594 " clip-rule="nonzero"/></clipPath><clipPath id="96598b749f"><path d="M 47.613281 45.136719 L 206.277344 45.136719 L 206.277344 98.78125 L 47.613281 98.78125 Z M 47.613281 45.136719 " clip-rule="nonzero"/></clipPath><clipPath id="c7b13c543e"><path d="M 143 46.199219 L 235 46.199219 L 235 98 L 143 98 Z M 143 46.199219 " clip-rule="nonzero"/></clipPath><clipPath id="efbee8e9cb"><path d="M 87.292969 175.527344 L 105 175.527344 L 105 193.21875 L 87.292969 193.21875 Z M 87.292969 175.527344 " clip-rule="nonzero"/></clipPath></defs><g clip-path="url(#786a454751)"><path fill="#00ff0080" d="M 0 0 L 280.503906 0 L 280.503906 280.503906 L 0 280.503906 Z M 0 0 " fill-opacity="1" fill-rule="nonzero"/><path fill="#ffffff" d="M 0 0 L 280.503906 0 L 280.503906 280.503906 L 0 280.503906 Z M 0 0 " fill-opacity="1" fill-rule="nonzero"/><rect x="-28.125" width="337.5" fill="#ffffff" y="-28.124999" height="337.499986" fill-opacity="1"/><rect x="-28.125" width="337.5" fill="#ffffff" y="-28.124999" height="337.499986" fill-opacity="1"/></g><g clip-path="url(#7c6157788d)"><path fill="#01a58d" d="M 134.816406 181.796875 C 134.871094 180.71875 134.925781 179.644531 134.980469 178.574219 C 134.804688 175.433594 134.585938 172.804688 134.402344 170.867188 C 133.980469 166.351562 133.710938 163.527344 132.933594 159.789062 C 132.554688 157.96875 132.183594 156.175781 131.402344 153.808594 C 131.171875 153.113281 130.328125 150.609375 127.628906 145.265625 C 125.324219 140.707031 125.4375 141.542969 124.050781 138.546875 C 124.050781 138.546875 122.476562 135.164062 120.695312 129.019531 C 120.433594 128.160156 120.265625 127.285156 120.1875 126.386719 C 120.128906 125.671875 120.128906 124.953125 120.1875 124.238281 C 120.632812 122.835938 120.984375 121.417969 121.242188 119.976562 C 121.609375 118.003906 121.789062 117.011719 121.679688 115.679688 C 121.441406 112.957031 120.136719 110.632812 119.054688 110.378906 C 118.644531 110.28125 118.234375 110.269531 117.816406 110.332031 C 117.585938 110.382812 117.394531 110.449219 117.015625 110.589844 C 116.644531 110.730469 116.257812 110.890625 116.027344 110.988281 C 115.859375 111.070312 115.6875 111.117188 115.507812 111.136719 C 115.285156 111.164062 115.0625 111.148438 114.847656 111.09375 C 113.960938 110.898438 114.148438 111.050781 113.03125 110.753906 C 112.09375 110.507812 111.929688 110.390625 109.296875 109.40625 C 108.875 109.257812 108.476562 109.074219 108.09375 108.855469 C 107.925781 108.757812 107.457031 108.492188 107.039062 108.132812 C 106.246094 107.445312 105.863281 106.613281 105.609375 106.039062 C 105.167969 105.023438 104.9375 103.96875 104.921875 102.863281 C 104.875 102.644531 104.800781 102.300781 104.691406 101.890625 C 104.480469 101.117188 104.359375 100.921875 104.277344 100.371094 C 104.210938 99.941406 104.160156 99.582031 104.316406 99.179688 C 104.425781 98.890625 104.59375 98.703125 104.746094 98.53125 C 104.992188 98.253906 105.28125 98.03125 105.609375 97.863281 L 106.792969 97.222656 C 107.863281 96.636719 107.945312 96.574219 108.597656 96.226562 C 109.152344 95.933594 109.808594 95.589844 110.304688 95.332031 C 111.191406 94.875 111.382812 94.78125 111.707031 94.527344 C 112.09375 94.222656 112.425781 93.875 112.71875 93.480469 C 112.925781 93.203125 113.140625 92.90625 113.296875 92.457031 C 113.390625 92.171875 113.449219 91.882812 113.46875 91.582031 C 113.476562 91.117188 113.480469 90.644531 113.488281 90.175781 C 113.589844 89.871094 113.726562 89.582031 113.898438 89.308594 C 114.070312 89.050781 114.265625 88.8125 114.492188 88.601562 C 114.832031 88.277344 115.046875 88.191406 115.785156 87.757812 C 116.019531 87.621094 115.519531 87.90625 117.28125 86.84375 C 117.949219 86.4375 118.277344 86.238281 118.363281 86.195312 C 119.359375 85.597656 120.394531 85.082031 121.476562 84.648438 C 121.78125 84.527344 122.136719 84.390625 122.625 84.238281 C 123.1875 84.0625 124.210938 83.75 125.5625 83.652344 C 126.222656 83.609375 126.890625 83.617188 127.550781 83.683594 C 127.953125 83.695312 128.351562 83.742188 128.746094 83.820312 C 129.066406 83.882812 129.414062 83.960938 129.851562 84.152344 C 130.082031 84.253906 130.300781 84.375 130.515625 84.511719 L 131.382812 85.070312 L 132.660156 85.902344 L 133.628906 86.527344 C 134.964844 87.394531 136.148438 88.402344 136.585938 88.78125 C 137.144531 89.257812 137.714844 89.75 138.414062 90.488281 C 139.117188 91.21875 139.507812 91.71875 139.648438 91.898438 C 140.136719 92.511719 140.464844 93.007812 140.707031 93.371094 C 141.195312 94.105469 141.523438 94.679688 141.675781 94.933594 C 142.375 96.144531 142.980469 97.121094 144.199219 99.089844 C 144.460938 99.515625 144.335938 99.300781 146.023438 101.9375 C 148.074219 105.167969 148.359375 105.621094 149.085938 106.695312 C 149.488281 107.285156 149.890625 107.863281 150.703125 109.019531 C 151.605469 110.3125 152.085938 111 152.601562 111.710938 C 154.277344 114.023438 155.710938 115.792969 156.878906 117.230469 C 157.765625 118.324219 158.652344 119.378906 158.753906 119.503906 L 159.578125 120.476562 C 161.128906 122.285156 161.910156 123.242188 163.300781 124.878906 C 164.769531 126.601562 165.890625 127.882812 167.746094 130.007812 C 168.679688 131.078125 169.460938 131.976562 170.039062 132.628906 L 175.570312 138.976562 C 176.667969 140.242188 177.78125 141.507812 178.894531 142.777344 C 179.820312 143.824219 180.742188 144.867188 181.660156 145.898438 L 183.996094 148.507812 L 186.414062 151.378906 L 188.421875 153.945312 C 188.882812 154.597656 189.34375 155.253906 189.8125 155.902344 C 190.335938 156.769531 190.863281 157.632812 191.394531 158.496094 L 193.089844 161.730469 C 193.359375 162.394531 193.636719 163.066406 193.917969 163.734375 C 194.179688 164.402344 194.433594 165.128906 194.671875 165.914062 C 194.917969 166.695312 195.078125 167.320312 195.234375 167.972656 C 195.390625 168.621094 195.457031 169.160156 195.574219 169.753906 C 195.835938 171.21875 195.914062 172.695312 195.8125 174.179688 C 195.796875 174.488281 195.765625 174.828125 195.710938 175.191406 C 195.664062 175.554688 195.621094 175.769531 195.566406 176.023438 L 195.566406 177.550781 C 195.613281 177.832031 195.675781 178.105469 195.753906 178.382812 C 195.863281 178.765625 195.988281 179.1875 196.257812 179.667969 C 196.542969 180.164062 196.910156 180.59375 197.359375 180.949219 C 197.566406 181.113281 197.878906 181.355469 198.355469 181.519531 C 198.617188 181.613281 198.886719 181.65625 199.167969 181.664062 C 199.453125 181.664062 199.734375 181.625 200.003906 181.535156 C 200.4375 181.398438 200.71875 181.203125 201.0625 180.972656 C 201.460938 180.703125 201.828125 180.394531 202.167969 180.054688 C 202.882812 179.484375 203.527344 178.847656 204.101562 178.144531 C 204.535156 177.621094 204.925781 177.0625 205.269531 176.476562 C 205.53125 176.023438 205.757812 175.558594 205.957031 175.082031 C 206.285156 174.289062 206.53125 173.464844 206.695312 172.625 C 207 171.042969 206.953125 169.789062 206.902344 168.785156 C 206.867188 168.101562 206.808594 167.082031 206.503906 165.796875 C 206.34375 165.136719 206.195312 164.542969 205.871094 163.851562 C 205.585938 163.253906 205.007812 162.253906 203.839844 161.316406 C 203.238281 160.914062 202.390625 160.339844 201.40625 159.605469 C 200.269531 158.761719 199.625 158.285156 198.871094 157.566406 C 198.015625 156.757812 197.246094 155.871094 196.566406 154.910156 C 196.277344 154.484375 196.066406 154.027344 195.929688 153.535156 C 195.8125 153.089844 195.753906 152.636719 195.761719 152.175781 C 195.757812 151.726562 195.800781 151.285156 195.890625 150.847656 C 195.925781 150.625 195.984375 150.402344 196.066406 150.1875 C 196.234375 149.769531 196.453125 149.496094 196.625 149.289062 C 196.804688 149.058594 197.007812 148.855469 197.242188 148.679688 C 197.597656 148.410156 197.917969 148.292969 198.230469 148.1875 C 198.726562 148.019531 199.230469 147.921875 199.75 147.890625 C 199.996094 147.871094 200.347656 147.847656 200.769531 147.824219 C 201.359375 147.796875 201.664062 147.777344 202.050781 147.78125 C 202.433594 147.785156 202.804688 147.820312 203.199219 147.859375 C 203.96875 147.9375 204.566406 148.035156 204.847656 148.085938 C 206.691406 148.414062 208.457031 148.988281 210.140625 149.800781 C 211.042969 150.21875 211.675781 150.578125 212.34375 150.960938 C 213.265625 151.480469 213.890625 151.839844 214.675781 152.425781 C 215.039062 152.699219 215.359375 152.960938 215.707031 153.246094 C 216.316406 153.742188 216.660156 154.03125 217.070312 154.417969 C 217.628906 154.945312 218.140625 155.511719 218.605469 156.121094 C 219.027344 156.671875 219.414062 157.253906 219.761719 157.855469 C 220.265625 158.726562 220.683594 159.636719 221.019531 160.585938 C 221.308594 161.390625 221.527344 162.210938 221.664062 163.058594 C 221.773438 163.707031 221.832031 164.363281 221.839844 165.023438 L 221.851562 167.945312 C 221.828125 168.480469 221.78125 169.167969 221.691406 169.953125 C 221.585938 170.863281 221.429688 171.761719 221.226562 172.648438 C 220.96875 173.761719 220.625 174.835938 220.195312 175.894531 C 219.796875 176.839844 219.332031 177.753906 218.792969 178.636719 C 218.003906 179.941406 217.269531 180.824219 216.734375 181.457031 C 215.980469 182.34375 215.175781 183.183594 214.316406 183.972656 C 213.496094 184.730469 212.167969 185.949219 210.199219 187.152344 C 209.234375 187.75 208.230469 188.269531 207.1875 188.71875 C 205.277344 189.558594 203.300781 190.183594 201.253906 190.585938 L 197.066406 191.148438 L 194.859375 191.234375 C 191.105469 191.226562 188.085938 191.230469 185.976562 191.234375 C 183.476562 191.242188 181.976562 191.25 179.1875 191.246094 L 175.015625 191.234375 L 169.820312 191.246094 L 164.003906 191.253906 L 160.335938 191.234375 C 160.375 191 160.378906 190.761719 160.34375 190.523438 C 160.304688 190.222656 160.210938 190.011719 160.039062 189.621094 C 159.914062 189.332031 159.773438 189.050781 159.617188 188.777344 C 159.597656 188.664062 159.597656 188.546875 159.617188 188.425781 C 159.652344 188.210938 159.746094 188.015625 159.902344 187.859375 C 160.054688 187.640625 160.195312 187.414062 160.316406 187.175781 C 160.453125 186.886719 160.558594 186.617188 160.722656 186.066406 C 160.882812 185.523438 161.007812 185.089844 161.144531 184.402344 C 161.257812 183.832031 161.339844 183.253906 161.394531 182.671875 L 161.394531 179.90625 C 161.351562 179.730469 161.289062 179.464844 161.226562 179.140625 C 161.085938 178.480469 161.046875 178.105469 160.992188 177.792969 C 160.875 177.113281 160.699219 176.632812 160.433594 175.945312 C 160.171875 175.25 159.859375 174.578125 159.492188 173.933594 C 159.042969 173.164062 158.523438 172.453125 157.921875 171.792969 C 157.375 171.167969 156.832031 170.675781 155.960938 169.863281 L 155.335938 169.296875 L 155.335938 167.46875 C 155.445312 166.984375 155.585938 166.519531 155.769531 166.0625 C 155.949219 165.601562 156.125 165.152344 156.46875 164.632812 C 156.703125 164.28125 156.8125 164.210938 157.132812 163.714844 C 157.304688 163.460938 157.460938 163.195312 157.601562 162.921875 C 157.804688 162.5 157.960938 162.054688 158.070312 161.597656 C 158.257812 160.972656 158.382812 160.429688 158.46875 160.011719 C 158.589844 159.382812 158.65625 158.882812 158.699219 158.496094 C 158.738281 158.113281 158.773438 157.78125 158.792969 157.53125 C 158.796875 156.679688 158.804688 155.824219 158.816406 154.96875 C 158.722656 154.617188 158.632812 154.324219 158.554688 154.109375 C 158.484375 153.890625 158.4375 153.78125 158.324219 153.667969 C 158.207031 153.550781 158.066406 153.476562 157.902344 153.449219 C 157.84375 153.441406 157.679688 153.429688 157.363281 153.597656 C 157.117188 153.734375 156.972656 153.886719 156.808594 154.042969 C 156.203125 154.609375 156.21875 154.53125 155.90625 154.871094 C 155.734375 155.046875 155.675781 155.132812 155.308594 155.59375 C 154.527344 156.570312 154.527344 156.527344 154.203125 156.960938 C 153.878906 157.394531 153.621094 157.726562 153.335938 158.183594 C 153.054688 158.644531 152.824219 159.144531 152.417969 160.042969 C 152.011719 160.949219 151.785156 161.449219 151.652344 161.910156 C 151.566406 162.207031 151.511719 162.449219 151.347656 162.800781 C 151.175781 163.175781 150.960938 163.515625 150.695312 163.824219 C 150.644531 163.859375 150.589844 163.878906 150.53125 163.886719 C 150.355469 163.90625 150.234375 163.761719 150.21875 163.742188 C 150.109375 163.664062 150.015625 163.578125 149.941406 163.472656 C 149.886719 163.390625 149.839844 163.285156 149.75 163.074219 C 149.710938 162.972656 149.652344 162.84375 149.601562 162.71875 C 149.410156 162.320312 149.140625 161.789062 148.800781 161.160156 C 148.53125 160.660156 148.109375 159.878906 147.566406 159.085938 C 147.027344 158.285156 146.488281 157.644531 145.46875 156.488281 C 144.960938 155.910156 144.269531 155.148438 143.421875 154.277344 C 143.316406 154.144531 143.183594 154.054688 143.023438 153.996094 C 142.691406 153.886719 142.402344 154.023438 142.28125 154.082031 C 142.070312 154.183594 141.898438 154.335938 141.765625 154.53125 C 141.710938 154.761719 141.652344 154.996094 141.589844 155.226562 C 141.5625 155.523438 141.535156 155.824219 141.507812 156.121094 C 141.511719 156.304688 141.523438 156.574219 141.554688 156.882812 C 141.589844 157.292969 141.640625 157.613281 141.703125 158 C 141.882812 159.046875 141.96875 159.574219 142.097656 160.0625 C 142.203125 160.488281 142.335938 160.902344 142.496094 161.308594 C 142.632812 161.660156 142.765625 161.914062 143.015625 162.402344 C 143.089844 162.554688 143.386719 163.132812 143.871094 163.984375 C 144.363281 164.835938 144.230469 164.574219 144.726562 165.4375 C 144.984375 165.894531 145.265625 166.394531 145.566406 166.738281 C 145.683594 166.871094 145.785156 167.007812 145.910156 167.136719 C 146.03125 167.265625 146.128906 167.367188 146.203125 167.492188 C 146.277344 167.621094 146.332031 167.761719 146.355469 167.914062 L 146.355469 168.992188 C 146.300781 169.117188 146.230469 169.261719 146.140625 169.425781 C 146.035156 169.613281 145.914062 169.792969 145.777344 169.960938 C 145.679688 170.09375 145.574219 170.21875 145.460938 170.335938 C 145.460938 170.335938 145.351562 170.457031 144.8125 171.097656 C 144.273438 171.738281 143.796875 172.492188 143.367188 173.164062 C 143.007812 173.726562 142.757812 174.167969 142.601562 174.429688 C 142.324219 174.917969 142.175781 175.167969 142.003906 175.539062 C 141.796875 176 141.621094 176.476562 141.480469 176.96875 C 141.292969 177.605469 141.160156 178.25 141.082031 178.90625 C 141.019531 179.433594 141.015625 179.789062 141.003906 180.488281 C 140.988281 181.519531 140.980469 182.035156 141.066406 182.671875 C 141.1875 183.496094 141.390625 184.117188 141.5625 184.613281 C 141.734375 185.117188 141.929688 185.605469 142.160156 186.085938 C 142.535156 186.851562 142.988281 187.566406 143.519531 188.238281 L 143.507812 188.824219 C 143.371094 188.90625 143.246094 188.992188 143.128906 189.089844 C 142.878906 189.292969 142.65625 189.515625 142.457031 189.773438 C 142.234375 190.054688 142.054688 190.285156 141.921875 190.648438 C 141.851562 190.851562 141.804688 191.054688 141.785156 191.269531 L 140.933594 191.269531 C 140.539062 191.269531 140.257812 191.273438 140.183594 191.277344 C 138.414062 191.300781 136.929688 191.242188 136.929688 191.242188 C 136.050781 191.203125 135.976562 191.171875 135.175781 191.152344 C 134.375 191.136719 134.273438 191.152344 133.601562 191.148438 C 132.40625 191.128906 131.21875 191.015625 130.039062 190.808594 C 129.550781 190.71875 129.121094 190.628906 128.699219 190.285156 C 128.554688 190.167969 128.160156 189.832031 127.996094 189.253906 C 127.882812 188.867188 127.933594 188.558594 128.011719 188.070312 C 128.117188 187.46875 128.316406 186.894531 128.605469 186.351562 C 128.789062 185.988281 129.011719 185.648438 129.273438 185.339844 C 129.566406 184.980469 129.90625 184.679688 130.296875 184.425781 C 130.863281 184.0625 131.480469 183.851562 132.148438 183.78125 L 133.304688 183.734375 C 133.476562 183.710938 133.636719 183.660156 133.792969 183.578125 C 134 183.472656 134.171875 183.324219 134.308594 183.140625 C 134.707031 182.652344 134.796875 182.042969 134.816406 181.796875 Z M 134.816406 181.796875 " fill-opacity="1" fill-rule="nonzero"/></g><g clip-path="url(#bf71899af8)"><path fill="#01a58d" d="M 96.949219 191.421875 C 98.832031 191.445312 100.757812 191.449219 102.714844 191.4375 C 104.585938 191.421875 106.421875 191.386719 108.226562 191.332031 C 108.625 191.386719 109.015625 191.347656 109.398438 191.21875 C 109.519531 191.175781 109.636719 191.121094 109.75 191.0625 C 109.820312 190.980469 109.871094 190.882812 109.902344 190.78125 C 109.980469 190.558594 109.945312 190.355469 109.890625 190.136719 C 109.789062 189.742188 109.644531 189.367188 109.460938 189.007812 C 109.320312 188.738281 109.152344 188.484375 108.949219 188.265625 C 108.671875 187.953125 108.351562 187.699219 107.988281 187.5 C 107.515625 187.230469 107.011719 187.046875 106.46875 186.964844 L 101.925781 187.070312 L 101.382812 187.058594 L 101.382812 186.597656 C 101.496094 186.523438 101.667969 186.425781 101.863281 186.285156 C 102.0625 186.152344 102.234375 185.996094 102.710938 185.546875 C 103.1875 185.097656 103.46875 184.839844 103.632812 184.664062 C 103.792969 184.484375 103.914062 184.34375 104.160156 184.027344 C 104.566406 183.507812 104.988281 182.964844 105.433594 182.179688 C 105.800781 181.542969 106.105469 180.886719 106.367188 180.199219 C 106.59375 179.621094 106.769531 179.019531 106.894531 178.414062 C 106.972656 178.015625 107.023438 177.667969 107.054688 177.410156 L 107.054688 175.183594 C 107.011719 174.953125 106.949219 174.660156 106.855469 174.332031 C 106.769531 174.019531 106.667969 173.710938 106.546875 173.40625 C 106.410156 173.050781 106.253906 172.703125 106.074219 172.367188 C 105.921875 172.089844 105.753906 171.824219 105.574219 171.566406 C 105.414062 171.351562 105.242188 171.140625 105.0625 170.9375 L 105.234375 170.9375 L 105.792969 171.421875 C 106.125 171.714844 106.179688 171.753906 106.289062 171.867188 C 106.488281 172.066406 106.664062 172.285156 106.820312 172.523438 C 107.222656 173.085938 107.472656 173.707031 107.574219 174.390625 C 107.613281 174.625 107.640625 174.859375 107.652344 175.097656 C 107.6875 175.644531 107.714844 176.195312 107.742188 176.757812 C 107.789062 177.75 107.820312 178.726562 107.832031 179.683594 C 107.910156 180.476562 108 181.15625 108.09375 181.695312 C 108.15625 182.09375 108.257812 182.695312 108.4375 183.488281 C 108.550781 183.96875 108.675781 184.496094 108.894531 185.160156 C 109.113281 185.828125 109.183594 185.863281 109.46875 186.675781 C 109.601562 187.046875 109.613281 187.132812 110.070312 188.644531 C 110.449219 189.886719 110.496094 190.019531 110.621094 190.222656 C 111.027344 190.875 111.621094 191.226562 112.0625 191.421875 L 114.597656 191.433594 L 115.496094 191.425781 C 115.765625 191.402344 116.015625 191.335938 116.257812 191.222656 C 116.433594 191.136719 116.691406 191.015625 116.914062 190.726562 C 117.066406 190.519531 117.171875 190.285156 117.222656 190.027344 L 117.214844 189.011719 C 117.085938 188.691406 116.898438 188.40625 116.664062 188.152344 C 116.351562 187.816406 115.976562 187.566406 115.542969 187.421875 L 114.609375 187.421875 C 114.46875 187.328125 114.339844 187.21875 114.226562 187.089844 C 114.09375 186.933594 113.992188 186.769531 113.910156 186.582031 C 113.6875 186.105469 113.566406 185.628906 113.472656 185.230469 C 113.378906 184.832031 113.289062 184.464844 113.183594 183.890625 C 113.078125 183.316406 113.015625 182.796875 113 182.691406 C 113 182.691406 112.953125 182.222656 112.921875 181.703125 C 112.84375 180.386719 112.960938 178.734375 112.980469 178.441406 C 113 178.144531 113.042969 177.691406 113.117188 177.191406 C 113.242188 176.328125 113.386719 175.695312 113.539062 175.050781 C 113.792969 173.949219 114.054688 173.085938 114.207031 172.597656 C 114.363281 172.113281 114.515625 171.679688 114.863281 170.710938 C 115.453125 169.042969 115.488281 169.023438 115.761719 168.207031 C 116.195312 166.898438 116.4375 165.996094 116.492188 165.785156 C 116.667969 165.105469 116.832031 164.46875 116.964844 163.605469 C 117.0625 162.957031 117.109375 162.402344 117.136719 162 C 117.128906 161.382812 117.128906 160.761719 117.125 160.140625 C 117.097656 159.964844 117.046875 159.703125 116.992188 159.386719 C 116.875 158.703125 116.8125 158.359375 116.761719 158.121094 C 116.648438 157.601562 116.496094 157.09375 116.3125 156.59375 C 116.035156 155.835938 115.726562 155.261719 115.28125 154.421875 C 114.933594 153.78125 114.738281 153.464844 114.625 152.902344 C 114.558594 152.574219 114.527344 152.246094 114.542969 151.910156 C 114.53125 151.660156 114.5625 151.410156 114.632812 151.164062 C 114.695312 150.949219 114.765625 150.710938 114.972656 150.5 C 115.121094 150.34375 115.296875 150.242188 115.507812 150.1875 C 115.984375 150.113281 116.382812 150.023438 116.679688 149.953125 C 117.300781 149.804688 117.824219 149.671875 118.4375 149.351562 C 118.671875 149.234375 118.878906 149.125 119.121094 148.921875 C 119.488281 148.621094 119.695312 148.304688 119.90625 147.988281 C 120.117188 147.664062 120.152344 147.53125 120.609375 146.699219 L 120.933594 146.136719 C 120.96875 145.953125 120.96875 145.773438 120.933594 145.589844 C 120.878906 145.367188 120.773438 145.238281 120.667969 145.074219 C 120.558594 144.910156 120.4375 144.644531 120.261719 144.222656 C 120.023438 143.652344 119.925781 143.167969 119.859375 142.808594 C 119.800781 142.503906 119.761719 142.199219 119.738281 141.894531 C 119.730469 141.304688 119.726562 140.71875 119.722656 140.132812 C 119.679688 139.929688 119.625 139.734375 119.558594 139.535156 C 119.5 139.359375 119.210938 138.519531 118.398438 137.539062 C 118.082031 137.167969 117.742188 136.824219 117.375 136.511719 C 116.648438 135.882812 115.855469 135.347656 115.003906 134.90625 C 114.78125 134.804688 114.585938 134.664062 114.414062 134.492188 C 114.207031 134.292969 114.046875 134.0625 113.921875 133.796875 C 113.625 133.226562 113.378906 132.636719 113.183594 132.027344 C 113.023438 131.539062 112.898438 131.039062 112.800781 130.53125 C 112.714844 130.09375 112.652344 129.648438 112.621094 129.199219 C 112.625 129.082031 112.59375 128.96875 112.53125 128.867188 C 112.402344 128.675781 112.1875 128.636719 112.101562 128.617188 C 112.007812 128.601562 111.9375 128.597656 111.65625 128.667969 C 111.464844 128.710938 111.277344 128.773438 111.097656 128.855469 C 110.753906 129.019531 110.441406 129.226562 110.152344 129.476562 C 109.957031 129.644531 109.542969 130.035156 108.953125 130.953125 C 108.664062 131.40625 108.441406 131.824219 108.015625 132.648438 C 107.484375 133.679688 107.464844 133.800781 107.140625 134.320312 C 106.695312 135.042969 106.386719 135.382812 106.058594 135.644531 C 105.824219 135.828125 105.789062 135.816406 105.476562 136.039062 C 105.363281 136.125 104.945312 136.449219 104.359375 137.101562 C 103.703125 137.808594 103.144531 138.589844 102.683594 139.4375 C 101.789062 141.089844 101.304688 142.851562 101.246094 144.730469 C 101.179688 144.976562 101.078125 145.300781 100.949219 145.660156 C 100.765625 146.152344 100.550781 146.628906 100.308594 147.089844 C 99.910156 147.84375 99.542969 148.339844 98.859375 149.265625 C 98.675781 149.503906 98.34375 149.929688 97.679688 150.769531 C 96.941406 151.71875 96.570312 152.1875 96.332031 152.480469 C 95.605469 153.359375 95.03125 154 94.699219 154.363281 C 93.988281 155.148438 93.796875 155.308594 92.164062 156.976562 C 90.527344 158.644531 90.578125 158.613281 89.410156 159.796875 C 88.375 160.835938 88.308594 160.878906 87.707031 161.507812 C 86.90625 162.339844 86.273438 163 85.515625 163.9375 C 85.003906 164.574219 84.460938 165.246094 83.855469 166.230469 C 83.445312 166.894531 83.078125 167.585938 82.757812 168.296875 C 82.269531 169.390625 81.898438 170.527344 81.636719 171.703125 C 81.386719 172.816406 81.238281 173.945312 81.195312 175.085938 L 81.195312 178.484375 C 81.246094 179.445312 81.320312 180.238281 81.386719 180.820312 C 81.449219 181.402344 81.507812 181.882812 81.582031 182.453125 C 81.664062 183.023438 81.746094 183.628906 81.882812 184.46875 C 81.980469 185.042969 82.074219 185.535156 82.144531 185.890625 C 82.21875 186.089844 82.164062 186.234375 81.984375 186.339844 C 81.855469 186.410156 81.679688 186.375 81.546875 186.246094 C 81.359375 186.15625 81.1875 186.046875 81.023438 185.921875 C 80.742188 185.699219 80.488281 185.4375 80.277344 185.144531 C 80.136719 184.953125 79.871094 184.574219 79.453125 183.640625 C 79.164062 183 78.984375 182.496094 78.785156 181.957031 C 78.589844 181.410156 78.417969 180.929688 78.238281 180.304688 C 78.011719 179.515625 77.832031 178.722656 77.695312 177.914062 C 77.570312 177.171875 77.335938 175.703125 77.417969 173.875 C 77.441406 173.304688 77.492188 172.773438 77.515625 172.515625 C 77.5625 172.054688 77.640625 171.25 77.796875 170.417969 C 78 169.359375 78.265625 168.617188 78.632812 167.578125 C 78.828125 167.023438 79.113281 166.335938 79.675781 164.964844 C 79.980469 164.21875 80.234375 163.621094 80.515625 162.949219 C 81.105469 161.542969 81.210938 161.324219 81.40625 160.839844 C 81.734375 160.046875 82.1875 158.882812 82.671875 157.378906 C 82.808594 156.921875 82.941406 156.421875 83.054688 155.867188 C 83.171875 155.320312 83.234375 154.851562 83.289062 154.398438 C 83.3125 154.160156 83.339844 153.828125 83.355469 153.433594 C 83.378906 153.082031 83.378906 152.730469 83.355469 152.382812 C 83.3125 151.796875 83.191406 151.238281 82.988281 150.695312 C 82.804688 150.1875 82.542969 149.71875 82.214844 149.292969 C 81.976562 148.984375 81.703125 148.714844 81.402344 148.472656 C 81.40625 148.382812 81.390625 148.292969 81.355469 148.210938 C 81.328125 148.132812 81.289062 148.0625 81.234375 148.003906 C 81.089844 147.800781 80.929688 147.605469 80.757812 147.421875 C 80.5 147.160156 80.375 147.078125 80.238281 147.035156 C 80.144531 147.007812 80.046875 146.992188 79.953125 146.992188 L 79.550781 146.992188 L 79.164062 146.980469 C 79.113281 146.890625 79.074219 146.804688 79.042969 146.75 C 79.011719 146.695312 78.992188 146.601562 78.992188 146.578125 C 78.996094 146.492188 79.035156 146.414062 79.101562 146.355469 L 79.453125 146.113281 C 79.640625 145.984375 80.019531 145.722656 80.339844 145.492188 C 80.652344 145.261719 81 144.972656 81.609375 144.472656 L 82.269531 143.90625 L 82.546875 143.90625 C 82.554688 143.949219 82.566406 143.988281 82.59375 144.027344 C 82.617188 144.058594 82.644531 144.09375 82.671875 144.121094 C 82.738281 144.207031 82.734375 144.222656 82.761719 144.246094 C 82.785156 144.265625 82.871094 144.28125 83.015625 144.210938 C 83.167969 144.136719 83.273438 143.980469 83.429688 143.8125 C 83.757812 143.480469 84.058594 143.136719 84.34375 142.773438 C 84.875 142.082031 85.1875 141.441406 85.421875 140.953125 C 85.75 140.277344 85.925781 139.765625 86.214844 138.949219 C 86.472656 138.214844 86.621094 137.675781 86.808594 137.011719 C 87.113281 135.976562 87.199219 135.535156 87.242188 135.300781 C 87.332031 134.847656 87.375 134.464844 87.40625 134.191406 L 87.398438 132.480469 C 87.34375 132.109375 87.257812 131.742188 87.152344 131.386719 C 87.105469 131.21875 87.054688 131.058594 86.996094 130.90625 L 86.996094 130.527344 C 87.09375 130.320312 87.1875 130.105469 87.289062 129.894531 L 87.921875 128.957031 L 88.398438 128.050781 L 88.527344 127.632812 L 88.511719 126.875 L 88.789062 126.613281 L 89.316406 126.59375 L 90.058594 126.605469 C 90.277344 126.566406 90.492188 126.503906 90.695312 126.417969 C 90.859375 126.34375 91.015625 126.265625 91.164062 126.175781 C 91.355469 126.066406 91.507812 125.96875 91.621094 125.882812 C 91.652344 125.851562 91.691406 125.816406 91.71875 125.777344 C 91.75 125.742188 91.769531 125.71875 91.792969 125.6875 L 91.886719 125.6875 C 91.90625 125.722656 91.929688 125.761719 91.949219 125.800781 C 91.992188 125.878906 92.027344 125.964844 92.050781 126.050781 C 92.050781 126.292969 92.054688 126.542969 92.054688 126.78125 C 92.042969 126.835938 92.023438 126.890625 92.003906 126.945312 C 91.96875 127.023438 91.929688 127.09375 91.886719 127.167969 C 91.84375 127.226562 91.8125 127.289062 91.785156 127.355469 C 91.769531 127.40625 91.722656 127.546875 91.789062 127.679688 C 91.816406 127.722656 91.847656 127.757812 91.890625 127.792969 C 91.929688 127.792969 91.96875 127.792969 92.007812 127.78125 C 92.054688 127.777344 92.09375 127.761719 92.132812 127.742188 C 92.214844 127.691406 92.289062 127.636719 92.359375 127.570312 C 92.472656 127.464844 92.578125 127.351562 92.667969 127.226562 C 93.261719 126.398438 93.292969 126.359375 93.355469 126.230469 C 93.453125 126.027344 93.539062 125.8125 93.605469 125.59375 C 93.714844 125.265625 93.800781 124.933594 93.871094 124.59375 C 93.894531 124.316406 93.925781 124.042969 93.949219 123.761719 C 93.949219 123.617188 93.945312 123.464844 93.945312 123.3125 C 93.945312 123.070312 93.917969 122.828125 93.867188 122.589844 C 93.824219 122.398438 93.761719 122.21875 93.683594 122.042969 L 93.335938 121.308594 C 93.277344 121.101562 93.222656 120.890625 93.164062 120.675781 C 93.140625 120.371094 93.105469 120.070312 93.078125 119.761719 C 93.03125 119.636719 92.976562 119.515625 92.910156 119.402344 C 92.8125 119.234375 92.695312 119.082031 92.558594 118.941406 C 92.402344 118.773438 92.230469 118.625 92.042969 118.488281 C 91.90625 118.382812 91.765625 118.296875 91.609375 118.222656 C 91.523438 118.183594 91.433594 118.148438 91.339844 118.121094 L 89.378906 118.035156 L 87.3125 118.035156 C 86.875 118.070312 86.144531 118.175781 85.417969 118.507812 C 85.140625 118.628906 84.886719 118.773438 84.644531 118.949219 C 84.535156 119.039062 84.429688 119.121094 84.023438 119.511719 C 83.339844 120.175781 83.394531 120.160156 83.175781 120.335938 C 82.882812 120.574219 82.5625 120.777344 82.234375 120.953125 C 81.929688 121.117188 81.664062 121.234375 81.460938 121.324219 C 81.414062 121.339844 81.382812 121.375 81.359375 121.414062 C 81.339844 121.46875 81.339844 121.523438 81.359375 121.578125 C 81.386719 121.644531 81.417969 121.707031 81.457031 121.765625 C 81.507812 121.855469 81.535156 121.878906 81.535156 121.925781 C 81.535156 121.96875 81.414062 122.101562 81.367188 122.136719 C 81.160156 122.269531 80.988281 122.46875 80.769531 122.589844 C 80.449219 122.765625 80.160156 122.980469 79.898438 123.230469 C 79.882812 123.242188 79.816406 123.296875 79.824219 123.359375 C 79.828125 123.425781 79.847656 123.429688 79.898438 123.488281 L 79.996094 123.578125 C 80.039062 123.617188 80.066406 123.667969 80.078125 123.722656 C 80.082031 123.773438 80.078125 123.824219 80.058594 123.875 C 80.042969 123.925781 80.023438 123.972656 80 124.019531 C 79.914062 124.148438 79.792969 124.320312 79.640625 124.507812 C 79.429688 124.773438 79.199219 125.019531 78.941406 125.246094 C 78.757812 125.40625 78.566406 125.550781 78.359375 125.6875 C 77.734375 126.132812 77.609375 126.121094 77.316406 126.417969 C 77.152344 126.582031 77.007812 126.769531 76.886719 126.96875 C 76.722656 127.222656 76.679688 127.355469 76.457031 127.796875 C 76.308594 128.070312 76.230469 128.230469 76.117188 128.414062 C 75.851562 128.855469 75.535156 129.253906 75.164062 129.609375 C 75 129.765625 75.03125 129.71875 74.648438 130.054688 C 74.5625 130.136719 74.34375 130.332031 73.957031 130.695312 C 73.570312 131.066406 73.199219 131.417969 72.664062 131.96875 C 72.125 132.527344 72.195312 132.5 71.976562 132.699219 C 71.753906 132.902344 71.246094 133.332031 70.855469 133.699219 C 70.714844 133.828125 70.601562 133.984375 70.515625 134.160156 C 70.472656 134.242188 70.445312 134.332031 70.417969 134.421875 L 70.417969 135.15625 C 70.367188 135.285156 70.28125 135.472656 70.175781 135.691406 C 70.125 135.800781 70.003906 136.054688 69.910156 136.246094 C 69.726562 136.582031 69.585938 136.777344 69.394531 137.070312 C 68.949219 137.738281 68.726562 138.074219 68.527344 138.527344 C 68.476562 138.652344 68.378906 138.945312 68.179688 139.527344 C 67.984375 140.117188 67.953125 140.25 67.847656 140.523438 C 67.808594 140.625 67.6875 140.925781 67.332031 141.617188 C 66.929688 142.386719 66.851562 142.433594 66.457031 143.179688 C 66.070312 143.921875 66.265625 143.636719 65.859375 144.449219 C 65.859375 144.449219 65.570312 145.015625 65.515625 145.53125 C 65.5 145.636719 65.5 145.742188 65.519531 145.851562 C 65.5625 146.089844 65.667969 146.144531 65.691406 146.339844 C 65.714844 146.539062 65.660156 146.605469 65.605469 146.734375 C 65.527344 146.941406 65.40625 147.121094 65.25 147.269531 C 64.878906 147.636719 64.566406 148.058594 64.226562 148.453125 C 63.882812 148.847656 64.023438 148.738281 63.4375 149.464844 C 62.847656 150.183594 62.761719 150.246094 62.316406 150.824219 C 62.214844 150.960938 62.320312 150.824219 61.730469 151.636719 C 61.527344 151.910156 61.277344 152.257812 61.101562 152.679688 C 61.035156 152.855469 60.996094 153.035156 60.976562 153.21875 C 60.953125 153.402344 60.945312 153.492188 60.996094 153.542969 C 61.113281 153.652344 61.433594 153.480469 61.617188 153.332031 C 61.800781 153.191406 61.839844 153.128906 62.03125 152.90625 C 62.144531 152.78125 62.296875 152.691406 62.417969 152.578125 C 62.429688 152.566406 62.46875 152.523438 62.488281 152.535156 C 62.515625 152.554688 62.503906 152.625 62.5 152.648438 C 62.484375 152.71875 62.460938 152.785156 62.421875 152.847656 C 62.390625 152.90625 62.367188 152.964844 62.332031 153.023438 C 62.242188 153.171875 62.242188 153.207031 62 153.648438 C 61.722656 154.152344 61.667969 154.222656 61.613281 154.425781 C 61.582031 154.546875 61.566406 154.667969 61.570312 154.792969 C 61.574219 154.96875 61.578125 155.101562 61.644531 155.167969 C 61.839844 155.371094 62.503906 154.960938 62.769531 154.796875 C 63.035156 154.632812 63.265625 154.453125 63.625 154.167969 C 63.984375 153.886719 63.664062 154.148438 65.417969 152.816406 L 66.128906 152.277344 L 66.757812 152.277344 C 67.085938 152.113281 67.363281 151.957031 67.570312 151.832031 C 67.953125 151.597656 68.238281 151.386719 68.464844 151.21875 C 68.691406 151.050781 68.78125 150.980469 68.886719 150.902344 C 68.929688 150.859375 68.980469 150.84375 69.042969 150.847656 C 69.089844 150.859375 69.128906 150.882812 69.15625 150.921875 C 69.210938 150.980469 69.246094 151.046875 69.257812 151.128906 C 69.25 151.210938 69.238281 151.34375 69.222656 151.503906 C 69.125 152.402344 69.085938 152.808594 69.039062 153.304688 C 68.953125 154.117188 68.957031 153.996094 68.863281 154.902344 C 68.777344 155.730469 68.78125 155.75 68.6875 156.710938 C 68.582031 157.75 68.566406 157.769531 68.492188 158.582031 C 68.4375 159.152344 68.394531 159.625 68.347656 160.261719 C 68.296875 160.988281 68.3125 161.027344 68.265625 161.679688 C 68.21875 162.328125 68.199219 162.445312 68.105469 163.417969 C 68.023438 164.320312 68.039062 164.226562 67.925781 165.519531 C 67.816406 166.808594 67.800781 166.863281 67.75 167.503906 C 67.683594 168.375 67.652344 169.050781 67.636719 169.449219 C 67.605469 170.113281 67.601562 170.335938 67.578125 171.207031 C 67.519531 172.921875 67.488281 173.78125 67.417969 174.589844 C 67.3125 175.78125 67.257812 176.375 67.160156 176.699219 C 66.988281 177.25 66.871094 177.820312 66.804688 178.402344 C 66.796875 178.484375 66.792969 178.574219 66.796875 178.660156 C 66.792969 178.871094 66.800781 178.925781 66.839844 178.96875 C 66.878906 179.019531 66.910156 179.058594 67 179.050781 C 67.085938 179.042969 67.144531 178.964844 67.171875 178.9375 C 67.195312 178.90625 67.230469 178.78125 67.257812 178.578125 C 67.304688 178.28125 67.347656 178.171875 67.359375 178.132812 C 67.402344 178.023438 67.453125 177.875 67.519531 177.875 C 67.589844 177.875 67.714844 178.230469 67.71875 178.246094 C 67.722656 178.394531 67.730469 178.519531 67.738281 178.613281 C 67.746094 178.71875 67.757812 178.828125 67.777344 178.933594 C 67.804688 179.058594 67.835938 179.21875 67.882812 179.222656 C 67.929688 179.226562 67.945312 179.117188 68.039062 178.828125 C 68.125 178.535156 68.164062 178.441406 68.210938 178.320312 C 68.308594 178.074219 68.347656 178.066406 68.449219 177.839844 C 68.546875 177.613281 68.527344 177.570312 68.621094 177.257812 C 68.710938 176.945312 68.722656 176.976562 68.886719 176.472656 C 69.050781 175.964844 69.039062 175.925781 69.144531 175.664062 C 69.226562 175.457031 69.320312 175.261719 69.4375 175.078125 C 69.628906 174.765625 69.730469 174.726562 70.003906 174.375 C 70.183594 174.152344 70.339844 173.917969 70.464844 173.664062 C 70.550781 173.503906 70.582031 173.398438 70.777344 172.652344 C 70.949219 171.988281 71.03125 171.648438 71.113281 171.296875 C 71.1875 170.941406 71.25 170.601562 71.292969 170.367188 C 71.4375 169.570312 71.441406 169.390625 71.554688 168.800781 C 71.636719 168.359375 71.710938 168.058594 71.832031 167.554688 C 71.902344 167.261719 72.03125 166.75 72.320312 165.742188 C 72.613281 164.734375 72.667969 164.582031 73.015625 163.378906 C 73.257812 162.539062 73.375 162.113281 73.449219 161.808594 C 73.691406 160.808594 73.636719 160.675781 73.882812 159.5 C 74.003906 158.902344 74.121094 158.464844 74.335938 157.632812 C 74.464844 157.140625 74.46875 157.140625 74.769531 156 C 75.132812 154.636719 75.195312 154.375 75.226562 154.222656 C 75.285156 153.957031 75.375 153.539062 75.542969 152.699219 C 75.765625 151.605469 75.835938 151.207031 76.042969 150.625 C 76.132812 150.355469 76.242188 150.097656 76.363281 149.839844 L 76.625 149.839844 C 76.683594 149.890625 76.746094 149.9375 76.8125 149.984375 L 77.3125 149.996094 L 77.410156 150.457031 C 77.40625 150.570312 77.40625 150.691406 77.40625 150.804688 C 77.464844 150.949219 77.554688 151.070312 77.671875 151.167969 C 77.769531 151.253906 78.019531 151.4375 78.34375 151.445312 C 78.472656 151.445312 78.570312 151.421875 78.664062 151.492188 C 78.742188 151.550781 78.78125 151.625 78.78125 151.722656 C 78.78125 151.777344 78.757812 151.796875 78.703125 151.90625 C 78.703125 151.90625 78.683594 151.953125 78.625 152.109375 C 78.488281 152.484375 78.523438 153.199219 78.523438 153.199219 C 78.53125 153.359375 78.4375 153.777344 78.261719 154.609375 C 78.226562 154.765625 78.144531 155.140625 77.910156 156.089844 C 77.675781 157.046875 77.570312 157.453125 77.421875 158.019531 C 77.378906 158.144531 77.21875 158.746094 76.96875 159.546875 C 76.777344 160.164062 76.742188 160.238281 76.367188 161.394531 C 76.089844 162.242188 75.957031 162.664062 75.824219 163.101562 C 75.644531 163.707031 75.527344 164.152344 75.332031 164.875 C 75.074219 165.828125 74.945312 166.300781 74.820312 166.851562 C 74.671875 167.5 74.476562 168.410156 74.300781 169.492188 C 74.136719 170.492188 74.0625 171.203125 74.042969 171.398438 C 74 171.792969 73.96875 172.132812 73.953125 172.390625 C 73.867188 173.570312 73.867188 174.753906 73.953125 175.9375 C 74.027344 176.976562 74.160156 177.777344 74.21875 178.125 C 74.25 178.3125 74.386719 179.097656 74.648438 180.121094 C 74.753906 180.511719 74.90625 181.101562 75.164062 181.851562 C 75.277344 182.191406 75.507812 182.820312 75.851562 183.585938 C 75.988281 183.882812 76.246094 184.445312 76.628906 185.132812 C 76.730469 185.316406 77.03125 185.855469 77.570312 186.683594 C 78.289062 187.777344 78.644531 188.328125 79.210938 188.972656 C 80.214844 190.113281 80.957031 190.554688 81.191406 190.683594 C 81.445312 190.824219 81.699219 190.945312 81.96875 191.050781 C 82.46875 191.246094 82.988281 191.371094 83.519531 191.425781 L 96.949219 191.425781 Z M 96.949219 191.421875 " fill-opacity="1" fill-rule="nonzero"/></g><g clip-path="url(#113b81a9d3)"><path fill="#01a58d" d="M 94.886719 31.542969 C 93.480469 24.300781 84.648438 24.179688 82.472656 30.953125 C 80.292969 24.179688 71.464844 24.300781 70.054688 31.542969 C 68.777344 38.121094 82.472656 48.492188 82.472656 48.492188 C 82.472656 48.492188 96.167969 38.121094 94.886719 31.542969 Z M 94.886719 31.542969 " fill-opacity="1" fill-rule="nonzero"/></g><g clip-path="url(#96598b749f)"><path fill="#01a58d" d="M 50.464844 98.496094 L 126.972656 49.003906 C 126.972656 49.003906 203.476562 98.496094 203.476562 98.496094 C 204.269531 99.007812 205.328125 98.78125 205.839844 97.992188 C 206.351562 97.199219 206.125 96.140625 205.332031 95.628906 C 205.332031 95.628906 127.898438 45.53125 127.898438 45.53125 C 127.332031 45.167969 126.609375 45.167969 126.046875 45.53125 C 126.046875 45.53125 48.613281 95.628906 48.613281 95.628906 C 47.820312 96.140625 47.59375 97.199219 48.105469 97.992188 C 48.617188 98.78125 49.671875 99.007812 50.464844 98.496094 Z M 50.464844 98.496094 " fill-opacity="1" fill-rule="evenodd"/></g><g clip-path="url(#c7b13c543e)"><path fill="#01a58d" d="M 145.886719 59.121094 L 159.960938 50.019531 C 159.960938 50.019531 232.292969 97.472656 232.292969 97.472656 C 233.078125 97.988281 234.140625 97.769531 234.65625 96.980469 C 235.171875 96.1875 234.953125 95.132812 234.164062 94.613281 C 234.164062 94.613281 160.902344 46.550781 160.902344 46.550781 C 160.335938 46.183594 159.609375 46.179688 159.039062 46.546875 C 159.039062 46.546875 152.808594 50.574219 144.03125 56.253906 C 143.238281 56.765625 143.011719 57.824219 143.523438 58.621094 C 144.035156 59.40625 145.09375 59.636719 145.886719 59.121094 Z M 145.886719 59.121094 " fill-opacity="1" fill-rule="evenodd"/></g><path fill="#01a58d" d="M 92.023438 70.082031 L 92.023438 57.171875 C 92.023438 56.234375 91.257812 55.472656 90.320312 55.472656 L 76.082031 55.472656 C 75.140625 55.472656 74.382812 56.234375 74.382812 57.171875 L 74.382812 79.890625 C 74.382812 80.828125 75.140625 81.589844 76.082031 81.589844 C 77.023438 81.589844 77.789062 80.828125 77.789062 79.890625 L 77.789062 58.875 C 77.789062 58.875 88.617188 58.875 88.617188 58.875 L 88.617188 70.082031 C 88.617188 71.015625 89.378906 71.777344 90.320312 71.777344 C 91.257812 71.777344 92.023438 71.015625 92.023438 70.082031 Z M 92.023438 70.082031 " fill-opacity="1" fill-rule="evenodd"/><g clip-path="url(#efbee8e9cb)"><path fill="#ffffff" d="M 100.4375 187.179688 C 100.5625 187.675781 100.269531 187.984375 100.128906 188.339844 C 100 188.320312 100.070312 188.195312 99.976562 188.140625 C 99.664062 189.277344 99.011719 190.214844 98.179688 191.140625 C 100.472656 191.011719 102.535156 191.425781 104.324219 192.8125 C 102.3125 192.132812 100.257812 191.976562 98.113281 192.199219 C 98.222656 192.332031 98.308594 192.410156 98.367188 192.511719 C 98.539062 192.792969 98.414062 193.007812 98.085938 193.003906 C 97.960938 193.003906 97.84375 193.019531 97.730469 193.082031 C 97.539062 193.191406 97.335938 193.199219 97.128906 193.121094 C 97.046875 193.09375 96.964844 193.058594 96.878906 193.089844 C 96.488281 193.214844 96.175781 193.058594 95.894531 192.808594 C 95.726562 192.65625 95.585938 192.640625 95.367188 192.722656 C 93.964844 193.28125 92.542969 193.390625 91.109375 192.835938 C 90.929688 192.765625 90.75 192.722656 90.558594 192.742188 C 90.011719 192.789062 89.582031 192.558594 89.214844 192.183594 C 88.382812 191.339844 87.941406 190.289062 87.742188 189.144531 C 87.296875 186.597656 87.976562 184.339844 89.617188 182.359375 C 89.945312 181.96875 90.304688 181.601562 90.675781 181.25 C 90.890625 181.042969 90.933594 180.671875 91.378906 180.601562 C 91.167969 180.53125 91.070312 180.65625 90.953125 180.609375 C 90.953125 180.597656 90.945312 180.566406 90.949219 180.5625 C 91.433594 180.308594 91.683594 179.835938 92.015625 179.433594 C 92.101562 179.332031 91.921875 179.148438 92.160156 179.105469 C 92.308594 179.074219 92.449219 178.964844 92.589844 178.894531 C 92.742188 178.816406 92.898438 178.738281 93.046875 178.660156 C 93.371094 178.484375 93.367188 178.484375 93.109375 178.222656 C 92.589844 177.695312 92.535156 176.984375 92.96875 176.332031 C 93.351562 175.753906 94.0625 175.53125 94.714844 175.785156 C 95.015625 175.898438 95.261719 176.082031 95.496094 176.292969 C 95.59375 176.378906 95.683594 176.421875 95.828125 176.386719 C 96.421875 176.25 97.027344 176.25 97.621094 176.378906 C 97.796875 176.417969 97.894531 176.375 97.984375 176.214844 C 98.238281 175.78125 98.628906 175.550781 99.140625 175.601562 C 99.929688 175.679688 100.332031 176.359375 100.046875 177.105469 C 100.019531 177.183594 100 177.277344 99.949219 177.339844 C 99.640625 177.722656 99.742188 178.085938 99.941406 178.484375 C 100.117188 178.835938 100.238281 179.21875 100.382812 179.585938 C 100.421875 179.683594 100.464844 179.78125 100.519531 179.867188 C 100.8125 180.328125 100.8125 180.328125 101.332031 180.171875 C 102.234375 179.90625 103.140625 179.808594 103.789062 179.9375 C 103.300781 179.972656 102.8125 180.011719 102.335938 180.125 C 101.863281 180.238281 101.40625 180.394531 100.96875 180.636719 C 101.539062 180.628906 102.101562 180.53125 102.667969 180.589844 C 103.230469 180.652344 103.785156 180.757812 104.285156 181.042969 C 103.304688 180.765625 102.316406 180.808594 101.320312 180.9375 C 101.742188 181 102.160156 181.078125 102.570312 181.1875 C 102.988281 181.300781 103.394531 181.441406 103.746094 181.707031 C 103.046875 181.496094 102.320312 181.417969 101.59375 181.34375 C 102.800781 181.664062 103.964844 182.089844 105.023438 182.757812 C 103.769531 182.25 102.449219 181.980469 101.152344 181.621094 C 101.617188 181.871094 102.089844 182.101562 102.53125 182.382812 C 102.980469 182.667969 103.421875 182.957031 103.785156 183.363281 C 102.9375 182.839844 102.074219 182.359375 101.128906 182.007812 C 101.8125 182.550781 102.488281 183.089844 103.074219 183.824219 C 102.90625 183.789062 102.851562 183.699219 102.78125 183.632812 C 102.328125 183.1875 101.828125 182.800781 101.304688 182.441406 C 101.140625 182.332031 101.066406 182.347656 101.074219 182.554688 C 101.097656 182.867188 100.917969 183.132812 100.792969 183.394531 C 100.714844 183.566406 100.726562 183.796875 100.667969 183.863281 C 100.414062 184.171875 100.804688 184.335938 100.765625 184.558594 C 100.726562 184.777344 100.8125 185.003906 100.761719 185.179688 C 100.664062 185.519531 100.835938 185.808594 100.816406 186.117188 C 100.8125 186.1875 100.960938 186.371094 100.707031 186.3125 C 100.707031 186.375 100.691406 186.441406 100.703125 186.503906 C 100.753906 186.746094 100.707031 186.988281 100.675781 187.234375 C 100.671875 187.292969 100.660156 187.367188 100.605469 187.375 C 100.519531 187.382812 100.535156 187.277344 100.4375 187.179688 Z M 97.792969 182.675781 C 98.097656 182.761719 98.40625 182.789062 98.683594 182.597656 C 98.804688 182.515625 98.898438 182.523438 99.019531 182.585938 C 99.207031 182.667969 99.398438 182.714844 99.632812 182.601562 C 99.226562 182.554688 99.058594 182.4375 99.039062 182.113281 C 99.007812 181.734375 98.96875 181.335938 99.355469 181.066406 C 99.453125 181 99.507812 180.890625 99.464844 180.769531 C 99.425781 180.640625 99.3125 180.605469 99.191406 180.605469 C 99.0625 180.601562 98.929688 180.601562 98.800781 180.625 C 98.675781 180.652344 98.519531 180.652344 98.484375 180.820312 C 98.457031 180.96875 98.570312 181.058594 98.667969 181.144531 C 98.761719 181.222656 98.886719 181.257812 98.921875 181.402344 C 99.015625 181.761719 98.796875 182.335938 98.480469 182.53125 C 98.265625 182.660156 98.027344 182.632812 97.792969 182.675781 Z M 95.464844 181.65625 C 94.746094 181.773438 93.320312 182.382812 93.070312 182.648438 C 93.871094 182.316406 94.671875 181.988281 95.464844 181.65625 Z M 95.464844 181.65625 " fill-opacity="1" fill-rule="nonzero"/></g><path fill="#01a58d" d="M 71.722656 215.40625 C 73.003906 215.40625 73.992188 215.113281 74.675781 214.519531 C 75.367188 213.925781 75.714844 213.015625 75.714844 211.785156 C 75.714844 210.625 75.351562 209.730469 74.640625 209.101562 C 73.921875 208.476562 72.878906 208.164062 71.503906 208.164062 C 71.011719 208.164062 70.601562 208.175781 70.28125 208.195312 C 69.953125 208.210938 69.625 208.242188 69.292969 208.296875 L 69.292969 215.40625 Z M 69.339844 230.144531 C 69.007812 230.238281 68.472656 230.324219 67.75 230.414062 C 67.03125 230.515625 66.324219 230.566406 65.621094 230.566406 C 64.914062 230.566406 64.292969 230.507812 63.757812 230.398438 C 63.222656 230.296875 62.769531 230.109375 62.398438 229.828125 C 62.039062 229.550781 61.765625 229.167969 61.578125 228.6875 C 61.398438 228.195312 61.308594 227.554688 61.308594 226.757812 L 61.308594 205.128906 C 61.308594 204.492188 61.480469 204 61.828125 203.652344 C 62.1875 203.296875 62.671875 203.011719 63.289062 202.796875 C 64.328125 202.429688 65.511719 202.160156 66.84375 201.992188 C 68.171875 201.824219 69.507812 201.742188 70.851562 201.742188 C 75.078125 201.742188 78.304688 202.648438 80.542969 204.457031 C 82.777344 206.261719 83.894531 208.699219 83.894531 211.785156 C 83.894531 213.285156 83.652344 214.644531 83.175781 215.859375 C 82.707031 217.066406 82 218.105469 81.0625 218.976562 C 80.132812 219.851562 78.953125 220.519531 77.523438 220.992188 C 76.101562 221.460938 74.460938 221.695312 72.59375 221.695312 L 69.339844 221.695312 Z M 69.339844 230.144531 " fill-opacity="1" fill-rule="nonzero"/><path fill="#01a58d" d="M 98.253906 231.066406 C 96.445312 231.066406 94.765625 230.816406 93.222656 230.3125 C 91.679688 229.800781 90.332031 229.039062 89.183594 228.03125 C 88.042969 227.027344 87.140625 225.761719 86.484375 224.226562 C 85.820312 222.695312 85.496094 220.90625 85.496094 218.859375 C 85.496094 216.839844 85.820312 215.101562 86.484375 213.644531 C 87.140625 212.195312 88 211.003906 89.066406 210.074219 C 90.140625 209.136719 91.363281 208.449219 92.738281 208.011719 C 94.113281 207.566406 95.519531 207.339844 96.964844 207.339844 C 98.582031 207.339844 100.058594 207.589844 101.390625 208.078125 C 102.71875 208.5625 103.863281 209.230469 104.828125 210.089844 C 105.800781 210.953125 106.554688 211.980469 107.089844 213.175781 C 107.628906 214.363281 107.894531 215.660156 107.894531 217.066406 C 107.894531 218.105469 107.597656 218.90625 107.007812 219.464844 C 106.425781 220.015625 105.617188 220.363281 104.574219 220.503906 L 93.242188 222.214844 C 93.585938 223.21875 94.28125 223.976562 95.320312 224.476562 C 96.359375 224.980469 97.550781 225.234375 98.890625 225.234375 C 100.140625 225.234375 101.328125 225.078125 102.445312 224.761719 C 103.5625 224.441406 104.476562 224.058594 105.179688 223.621094 C 105.671875 223.9375 106.085938 224.371094 106.421875 224.914062 C 106.753906 225.464844 106.921875 226.046875 106.921875 226.65625 C 106.921875 228.03125 106.277344 229.054688 104.996094 229.726562 C 104.011719 230.253906 102.90625 230.601562 101.691406 230.78125 C 100.472656 230.972656 99.328125 231.066406 98.253906 231.066406 Z M 96.964844 213.027344 C 96.226562 213.027344 95.589844 213.152344 95.050781 213.394531 C 94.523438 213.640625 94.085938 213.957031 93.742188 214.332031 C 93.410156 214.714844 93.15625 215.148438 92.988281 215.625 C 92.820312 216.09375 92.726562 216.578125 92.703125 217.066406 L 100.550781 215.777344 C 100.449219 215.171875 100.105469 214.5625 99.527344 213.949219 C 98.945312 213.335938 98.089844 213.027344 96.964844 213.027344 Z M 96.964844 213.027344 " fill-opacity="1" fill-rule="nonzero"/><path fill="#01a58d" d="M 118.539062 222.667969 C 118.539062 223.464844 118.789062 224.027344 119.292969 224.359375 C 119.796875 224.695312 120.503906 224.863281 121.421875 224.863281 C 121.878906 224.863281 122.355469 224.832031 122.847656 224.761719 C 123.339844 224.6875 123.769531 224.585938 124.140625 224.460938 C 124.40625 224.796875 124.640625 225.175781 124.84375 225.585938 C 125.042969 226 125.144531 226.5 125.144531 227.078125 C 125.144531 228.242188 124.710938 229.191406 123.835938 229.925781 C 122.964844 230.652344 121.425781 231.019531 119.226562 231.019531 C 116.53125 231.019531 114.457031 230.40625 113.003906 229.191406 C 111.550781 227.960938 110.824219 225.96875 110.824219 223.21875 L 110.824219 203.570312 C 111.160156 203.480469 111.640625 203.382812 112.269531 203.285156 C 112.890625 203.175781 113.558594 203.117188 114.261719 203.117188 C 115.613281 203.117188 116.664062 203.359375 117.414062 203.835938 C 118.160156 204.304688 118.539062 205.308594 118.539062 206.839844 L 118.539062 209.773438 L 124.542969 209.773438 C 124.730469 210.109375 124.910156 210.527344 125.078125 211.03125 C 125.246094 211.535156 125.328125 212.09375 125.328125 212.707031 C 125.328125 213.78125 125.085938 214.558594 124.609375 215.039062 C 124.140625 215.507812 123.507812 215.742188 122.714844 215.742188 L 118.539062 215.742188 Z M 118.539062 222.667969 " fill-opacity="1" fill-rule="nonzero"/><path fill="#01a58d" d="M 144.925781 219.261719 C 143.570312 218.804688 142.339844 218.339844 141.234375 217.871094 C 140.136719 217.394531 139.195312 216.816406 138.402344 216.144531 C 137.605469 215.472656 136.984375 214.675781 136.539062 213.746094 C 136.089844 212.808594 135.871094 211.667969 135.871094 210.324219 C 135.871094 207.722656 136.867188 205.644531 138.871094 204.089844 C 140.882812 202.523438 143.691406 201.742188 147.304688 201.742188 C 148.621094 201.742188 149.84375 201.835938 150.976562 202.027344 C 152.105469 202.207031 153.074219 202.488281 153.878906 202.863281 C 154.691406 203.246094 155.328125 203.738281 155.789062 204.339844 C 156.246094 204.933594 156.476562 205.628906 156.476562 206.417969 C 156.476562 207.214844 156.292969 207.894531 155.921875 208.464844 C 155.5625 209.027344 155.121094 209.503906 154.597656 209.90625 C 153.929688 209.484375 153.023438 209.109375 151.882812 208.785156 C 150.75 208.460938 149.519531 208.296875 148.175781 208.296875 C 146.800781 208.296875 145.789062 208.496094 145.140625 208.882812 C 144.503906 209.265625 144.1875 209.746094 144.1875 210.324219 C 144.1875 210.789062 144.378906 211.160156 144.773438 211.449219 C 145.175781 211.742188 145.769531 212.011719 146.566406 212.253906 L 149 213.027344 C 151.882812 213.945312 154.097656 215.117188 155.636719 216.546875 C 157.179688 217.96875 157.953125 219.902344 157.953125 222.347656 C 157.953125 224.945312 156.921875 227.042969 154.867188 228.652344 C 152.820312 230.261719 149.808594 231.066406 145.828125 231.066406 C 144.429688 231.066406 143.121094 230.949219 141.90625 230.714844 C 140.699219 230.488281 139.640625 230.160156 138.738281 229.710938 C 137.839844 229.265625 137.136719 228.714844 136.625 228.066406 C 136.121094 227.410156 135.871094 226.648438 135.871094 225.785156 C 135.871094 224.90625 136.128906 224.152344 136.65625 223.523438 C 137.179688 222.886719 137.746094 222.398438 138.351562 222.0625 C 139.210938 222.746094 140.261719 223.332031 141.503906 223.824219 C 142.742188 224.304688 144.09375 224.546875 145.5625 224.546875 C 147.058594 224.546875 148.113281 224.320312 148.730469 223.859375 C 149.34375 223.402344 149.652344 222.863281 149.652344 222.25 C 149.652344 221.644531 149.40625 221.183594 148.914062 220.855469 C 148.421875 220.535156 147.734375 220.21875 146.851562 219.917969 Z M 144.925781 219.261719 " fill-opacity="1" fill-rule="nonzero"/><path fill="#01a58d" d="M 171.035156 207.339844 C 172.867188 207.339844 174.574219 207.585938 176.148438 208.0625 C 177.726562 208.53125 179.074219 209.261719 180.207031 210.242188 C 181.335938 211.214844 182.21875 212.449219 182.855469 213.929688 C 183.5 215.40625 183.828125 217.175781 183.828125 219.230469 C 183.828125 221.1875 183.550781 222.902344 183.007812 224.378906 C 182.457031 225.84375 181.675781 227.074219 180.660156 228.066406 C 179.652344 229.050781 178.4375 229.789062 177.019531 230.28125 C 175.601562 230.769531 174.019531 231.019531 172.277344 231.019531 C 170.953125 231.019531 169.730469 230.816406 168.601562 230.414062 L 168.601562 238.042969 C 168.289062 238.132812 167.796875 238.226562 167.128906 238.328125 C 166.457031 238.4375 165.769531 238.496094 165.066406 238.496094 C 164.394531 238.496094 163.792969 238.449219 163.253906 238.363281 C 162.71875 238.269531 162.265625 238.085938 161.894531 237.808594 C 161.527344 237.527344 161.246094 237.15625 161.058594 236.683594 C 160.878906 236.214844 160.789062 235.59375 160.789062 234.824219 L 160.789062 212.792969 C 160.789062 211.976562 160.960938 211.3125 161.308594 210.796875 C 161.664062 210.273438 162.152344 209.789062 162.769531 209.355469 C 163.714844 208.742188 164.898438 208.253906 166.304688 207.894531 C 167.714844 207.527344 169.289062 207.339844 171.035156 207.339844 Z M 171.117188 224.863281 C 174.269531 224.863281 175.847656 222.984375 175.847656 219.230469 C 175.847656 217.265625 175.453125 215.808594 174.671875 214.871094 C 173.890625 213.921875 172.765625 213.445312 171.304688 213.445312 C 170.71875 213.445312 170.199219 213.511719 169.742188 213.644531 C 169.28125 213.78125 168.886719 213.945312 168.554688 214.132812 L 168.554688 224.226562 C 168.921875 224.40625 169.316406 224.558594 169.742188 224.679688 C 170.167969 224.804688 170.625 224.863281 171.117188 224.863281 Z M 171.117188 224.863281 " fill-opacity="1" fill-rule="nonzero"/><path fill="#01a58d" d="M 209.804688 219.179688 C 209.804688 221.082031 209.511719 222.777344 208.933594 224.261719 C 208.351562 225.734375 207.53125 226.984375 206.46875 228 C 205.417969 229.003906 204.15625 229.773438 202.679688 230.296875 C 201.210938 230.808594 199.582031 231.066406 197.785156 231.066406 C 195.972656 231.066406 194.332031 230.792969 192.871094 230.246094 C 191.402344 229.6875 190.140625 228.902344 189.082031 227.882812 C 188.027344 226.855469 187.210938 225.609375 186.632812 224.144531 C 186.050781 222.667969 185.761719 221.015625 185.761719 219.179688 C 185.761719 217.367188 186.050781 215.734375 186.632812 214.265625 C 187.210938 212.804688 188.027344 211.558594 189.082031 210.527344 C 190.140625 209.5 191.402344 208.710938 192.871094 208.164062 C 194.332031 207.617188 195.972656 207.339844 197.785156 207.339844 C 199.582031 207.339844 201.210938 207.625 202.679688 208.195312 C 204.15625 208.757812 205.417969 209.550781 206.46875 210.578125 C 207.53125 211.597656 208.351562 212.839844 208.933594 214.316406 C 209.511719 215.785156 209.804688 217.402344 209.804688 219.179688 Z M 193.742188 219.179688 C 193.742188 221.050781 194.097656 222.480469 194.816406 223.472656 C 195.539062 224.46875 196.546875 224.964844 197.832031 224.964844 C 199.117188 224.964844 200.101562 224.460938 200.785156 223.457031 C 201.476562 222.441406 201.824219 221.015625 201.824219 219.179688 C 201.824219 217.347656 201.472656 215.933594 200.769531 214.9375 C 200.0625 213.945312 199.066406 213.445312 197.785156 213.445312 C 196.496094 213.445312 195.503906 213.945312 194.800781 214.9375 C 194.09375 215.933594 193.742188 217.347656 193.742188 219.179688 Z M 193.742188 219.179688 " fill-opacity="1" fill-rule="nonzero"/><path fill="#01a58d" d="M 220.503906 222.667969 C 220.503906 223.464844 220.753906 224.027344 221.257812 224.359375 C 221.761719 224.695312 222.46875 224.863281 223.386719 224.863281 C 223.84375 224.863281 224.316406 224.832031 224.8125 224.761719 C 225.304688 224.6875 225.734375 224.585938 226.105469 224.460938 C 226.371094 224.796875 226.605469 225.175781 226.808594 225.585938 C 227.007812 226 227.109375 226.5 227.109375 227.078125 C 227.109375 228.242188 226.675781 229.191406 225.800781 229.925781 C 224.929688 230.652344 223.390625 231.019531 221.191406 231.019531 C 218.496094 231.019531 216.421875 230.40625 214.96875 229.191406 C 213.515625 227.960938 212.789062 225.96875 212.789062 223.21875 L 212.789062 203.570312 C 213.125 203.480469 213.605469 203.382812 214.234375 203.285156 C 214.855469 203.175781 215.523438 203.117188 216.226562 203.117188 C 217.578125 203.117188 218.628906 203.359375 219.378906 203.835938 C 220.125 204.304688 220.503906 205.308594 220.503906 206.839844 L 220.503906 209.773438 L 226.507812 209.773438 C 226.695312 210.109375 226.875 210.527344 227.042969 211.03125 C 227.210938 211.535156 227.292969 212.09375 227.292969 212.707031 C 227.292969 213.78125 227.050781 214.558594 226.574219 215.039062 C 226.105469 215.507812 225.472656 215.742188 224.679688 215.742188 L 220.503906 215.742188 Z M 220.503906 222.667969 " fill-opacity="1" fill-rule="nonzero"/><path fill="#000000" d="M 58.738281 253.503906 L 54.984375 253.503906 L 54.246094 255.25 L 52.804688 255.25 L 56.191406 247.71875 L 57.566406 247.71875 L 60.953125 255.25 L 59.492188 255.25 Z M 58.285156 252.414062 L 56.859375 249.128906 L 55.453125 252.414062 Z M 58.285156 252.414062 " fill-opacity="1" fill-rule="nonzero"/><path fill="#000000" d="M 65.300781 247.71875 L 68.585938 247.71875 C 69.394531 247.71875 70.105469 247.878906 70.734375 248.191406 C 71.359375 248.503906 71.839844 248.945312 72.175781 249.515625 C 72.519531 250.085938 72.695312 250.746094 72.695312 251.492188 C 72.695312 252.230469 72.519531 252.882812 72.175781 253.453125 C 71.839844 254.023438 71.359375 254.46875 70.734375 254.777344 C 70.105469 255.09375 69.394531 255.25 68.585938 255.25 L 65.300781 255.25 Z M 68.539062 254.058594 C 69.082031 254.058594 69.566406 253.957031 69.980469 253.757812 C 70.402344 253.546875 70.726562 253.246094 70.953125 252.851562 C 71.175781 252.460938 71.289062 252.007812 71.289062 251.492188 C 71.289062 250.96875 71.175781 250.515625 70.953125 250.132812 C 70.726562 249.746094 70.402344 249.441406 69.980469 249.230469 C 69.566406 249.019531 69.082031 248.910156 68.539062 248.910156 L 66.710938 248.910156 L 66.710938 254.058594 Z M 68.539062 254.058594 " fill-opacity="1" fill-rule="nonzero"/><path fill="#000000" d="M 81.09375 255.347656 C 80.320312 255.347656 79.625 255.191406 79.011719 254.863281 C 78.398438 254.527344 77.910156 254.066406 77.554688 253.472656 C 77.207031 252.878906 77.035156 252.222656 77.035156 251.492188 C 77.035156 250.753906 77.207031 250.09375 77.554688 249.496094 C 77.910156 248.90625 78.398438 248.449219 79.011719 248.121094 C 79.625 247.789062 80.320312 247.621094 81.09375 247.621094 C 81.851562 247.621094 82.539062 247.789062 83.15625 248.121094 C 83.777344 248.449219 84.265625 248.90625 84.613281 249.496094 C 84.96875 250.09375 85.148438 250.753906 85.148438 251.492188 C 85.148438 252.230469 84.96875 252.898438 84.613281 253.488281 C 84.265625 254.070312 83.777344 254.527344 83.15625 254.863281 C 82.539062 255.191406 81.851562 255.347656 81.09375 255.347656 Z M 81.09375 254.125 C 81.59375 254.125 82.046875 254.015625 82.449219 253.789062 C 82.851562 253.566406 83.164062 253.253906 83.390625 252.851562 C 83.625 252.449219 83.742188 251.996094 83.742188 251.492188 C 83.742188 250.988281 83.625 250.535156 83.390625 250.132812 C 83.164062 249.722656 82.851562 249.40625 82.449219 249.179688 C 82.046875 248.957031 81.59375 248.84375 81.09375 248.84375 C 80.589844 248.84375 80.136719 248.957031 79.734375 249.179688 C 79.332031 249.40625 79.011719 249.722656 78.777344 250.132812 C 78.550781 250.535156 78.441406 250.988281 78.441406 251.492188 C 78.441406 251.996094 78.550781 252.449219 78.777344 252.851562 C 79.011719 253.253906 79.332031 253.566406 79.734375 253.789062 C 80.136719 254.015625 80.589844 254.125 81.09375 254.125 Z M 81.09375 254.125 " fill-opacity="1" fill-rule="nonzero"/><path fill="#000000" d="M 93.5 255.347656 C 92.738281 255.347656 92.050781 255.191406 91.4375 254.863281 C 90.820312 254.527344 90.339844 254.070312 89.996094 253.488281 C 89.648438 252.898438 89.476562 252.230469 89.476562 251.492188 C 89.476562 250.753906 89.648438 250.09375 89.996094 249.496094 C 90.351562 248.90625 90.839844 248.449219 91.453125 248.121094 C 92.066406 247.789062 92.753906 247.621094 93.515625 247.621094 C 94.128906 247.621094 94.691406 247.726562 95.195312 247.9375 C 95.707031 248.152344 96.136719 248.464844 96.484375 248.878906 L 95.578125 249.730469 C 95.042969 249.140625 94.371094 248.84375 93.566406 248.84375 C 93.050781 248.84375 92.585938 248.957031 92.175781 249.179688 C 91.773438 249.40625 91.453125 249.714844 91.21875 250.117188 C 90.992188 250.519531 90.882812 250.980469 90.882812 251.492188 C 90.882812 251.996094 90.992188 252.449219 91.21875 252.851562 C 91.453125 253.253906 91.773438 253.566406 92.175781 253.789062 C 92.585938 254.015625 93.050781 254.125 93.566406 254.125 C 94.371094 254.125 95.042969 253.832031 95.578125 253.238281 L 96.484375 254.09375 C 96.136719 254.507812 95.707031 254.820312 95.195312 255.03125 C 94.679688 255.246094 94.113281 255.347656 93.5 255.347656 Z M 92.996094 257.695312 C 92.601562 257.695312 92.277344 257.621094 92.007812 257.480469 L 92.257812 256.839844 C 92.480469 256.949219 92.71875 257.007812 92.980469 257.007812 C 93.359375 257.007812 93.550781 256.878906 93.550781 256.625 C 93.550781 256.511719 93.503906 256.421875 93.417969 256.355469 C 93.324219 256.296875 93.183594 256.273438 92.980469 256.273438 L 92.660156 256.273438 L 92.945312 255.183594 L 93.667969 255.183594 L 93.535156 255.769531 C 93.835938 255.808594 94.0625 255.910156 94.222656 256.070312 C 94.375 256.226562 94.457031 256.425781 94.457031 256.675781 C 94.457031 256.984375 94.320312 257.230469 94.054688 257.410156 C 93.792969 257.601562 93.441406 257.695312 92.996094 257.695312 Z M 92.996094 257.695312 " fill-opacity="1" fill-rule="nonzero"/><path fill="#000000" d="M 106.097656 253.503906 L 102.339844 253.503906 L 101.601562 255.25 L 100.160156 255.25 L 103.546875 247.71875 L 104.921875 247.71875 L 108.308594 255.25 L 106.851562 255.25 Z M 105.644531 252.414062 L 104.21875 249.128906 L 102.8125 252.414062 Z M 105.007812 247.117188 C 104.828125 247.117188 104.671875 247.082031 104.539062 247.015625 C 104.402344 246.941406 104.238281 246.828125 104.050781 246.679688 C 103.9375 246.59375 103.84375 246.523438 103.765625 246.480469 C 103.6875 246.425781 103.617188 246.394531 103.546875 246.394531 C 103.390625 246.394531 103.261719 246.457031 103.164062 246.578125 C 103.070312 246.691406 103.019531 246.847656 103.011719 247.050781 L 102.289062 247.050781 C 102.300781 246.613281 102.414062 246.269531 102.625 246.007812 C 102.835938 245.742188 103.117188 245.605469 103.464844 245.605469 C 103.640625 245.605469 103.792969 245.648438 103.917969 245.726562 C 104.050781 245.792969 104.21875 245.902344 104.421875 246.042969 C 104.53125 246.136719 104.621094 246.203125 104.6875 246.246094 C 104.765625 246.289062 104.84375 246.3125 104.921875 246.3125 C 105.066406 246.3125 105.183594 246.261719 105.277344 246.160156 C 105.375 246.050781 105.429688 245.902344 105.441406 245.707031 L 106.164062 245.707031 C 106.152344 246.136719 106.039062 246.476562 105.828125 246.730469 C 105.628906 246.992188 105.351562 247.117188 105.007812 247.117188 Z M 105.007812 247.117188 " fill-opacity="1" fill-rule="nonzero"/><path fill="#000000" d="M 116.179688 255.347656 C 115.410156 255.347656 114.714844 255.191406 114.101562 254.863281 C 113.484375 254.527344 113 254.066406 112.644531 253.472656 C 112.292969 252.878906 112.121094 252.222656 112.121094 251.492188 C 112.121094 250.753906 112.292969 250.09375 112.644531 249.496094 C 113 248.90625 113.484375 248.449219 114.101562 248.121094 C 114.714844 247.789062 115.410156 247.621094 116.179688 247.621094 C 116.941406 247.621094 117.625 247.789062 118.242188 248.121094 C 118.867188 248.449219 119.355469 248.90625 119.703125 249.496094 C 120.058594 250.09375 120.238281 250.753906 120.238281 251.492188 C 120.238281 252.230469 120.058594 252.898438 119.703125 253.488281 C 119.355469 254.070312 118.867188 254.527344 118.242188 254.863281 C 117.625 255.191406 116.941406 255.347656 116.179688 255.347656 Z M 116.179688 254.125 C 116.683594 254.125 117.136719 254.015625 117.539062 253.789062 C 117.941406 253.566406 118.25 253.253906 118.476562 252.851562 C 118.710938 252.449219 118.828125 251.996094 118.828125 251.492188 C 118.828125 250.988281 118.710938 250.535156 118.476562 250.132812 C 118.25 249.722656 117.941406 249.40625 117.539062 249.179688 C 117.136719 248.957031 116.683594 248.84375 116.179688 248.84375 C 115.675781 248.84375 115.226562 248.957031 114.824219 249.179688 C 114.421875 249.40625 114.101562 249.722656 113.867188 250.132812 C 113.640625 250.535156 113.53125 250.988281 113.53125 251.492188 C 113.53125 251.996094 113.640625 252.449219 113.867188 252.851562 C 114.101562 253.253906 114.421875 253.566406 114.824219 253.789062 C 115.226562 254.015625 115.675781 254.125 116.179688 254.125 Z M 116.179688 254.125 " fill-opacity="1" fill-rule="nonzero"/><path fill="#000000" d="M 134.945312 255.347656 C 134.183594 255.347656 133.496094 255.191406 132.882812 254.863281 C 132.265625 254.527344 131.785156 254.070312 131.441406 253.488281 C 131.09375 252.898438 130.921875 252.230469 130.921875 251.492188 C 130.921875 250.753906 131.09375 250.09375 131.441406 249.496094 C 131.796875 248.90625 132.28125 248.449219 132.898438 248.121094 C 133.511719 247.789062 134.199219 247.621094 134.960938 247.621094 C 135.574219 247.621094 136.136719 247.726562 136.636719 247.9375 C 137.148438 248.152344 137.582031 248.464844 137.929688 248.878906 L 137.023438 249.730469 C 136.488281 249.140625 135.816406 248.84375 135.011719 248.84375 C 134.496094 248.84375 134.03125 248.957031 133.621094 249.179688 C 133.21875 249.40625 132.898438 249.714844 132.664062 250.117188 C 132.4375 250.519531 132.328125 250.980469 132.328125 251.492188 C 132.328125 251.996094 132.4375 252.449219 132.664062 252.851562 C 132.898438 253.253906 133.21875 253.566406 133.621094 253.789062 C 134.03125 254.015625 134.496094 254.125 135.011719 254.125 C 135.816406 254.125 136.488281 253.832031 137.023438 253.238281 L 137.929688 254.09375 C 137.582031 254.507812 137.148438 254.820312 136.636719 255.03125 C 136.121094 255.246094 135.558594 255.347656 134.945312 255.347656 Z M 134.945312 255.347656 " fill-opacity="1" fill-rule="nonzero"/><path fill="#000000" d="M 146.183594 255.347656 C 145.414062 255.347656 144.714844 255.191406 144.105469 254.863281 C 143.488281 254.527344 143 254.066406 142.644531 253.472656 C 142.296875 252.878906 142.125 252.222656 142.125 251.492188 C 142.125 250.753906 142.296875 250.09375 142.644531 249.496094 C 143 248.90625 143.488281 248.449219 144.105469 248.121094 C 144.714844 247.789062 145.414062 247.621094 146.183594 247.621094 C 146.941406 247.621094 147.628906 247.789062 148.246094 248.121094 C 148.871094 248.449219 149.355469 248.90625 149.703125 249.496094 C 150.0625 250.09375 150.242188 250.753906 150.242188 251.492188 C 150.242188 252.230469 150.0625 252.898438 149.703125 253.488281 C 149.355469 254.070312 148.871094 254.527344 148.246094 254.863281 C 147.628906 255.191406 146.941406 255.347656 146.183594 255.347656 Z M 146.183594 254.125 C 146.6875 254.125 147.140625 254.015625 147.542969 253.789062 C 147.945312 253.566406 148.253906 253.253906 148.480469 252.851562 C 148.714844 252.449219 148.832031 251.996094 148.832031 251.492188 C 148.832031 250.988281 148.714844 250.535156 148.480469 250.132812 C 148.253906 249.722656 147.945312 249.40625 147.542969 249.179688 C 147.140625 248.957031 146.6875 248.84375 146.183594 248.84375 C 145.679688 248.84375 145.226562 248.957031 144.824219 249.179688 C 144.421875 249.40625 144.105469 249.722656 143.871094 250.132812 C 143.644531 250.535156 143.535156 250.988281 143.535156 251.492188 C 143.535156 251.996094 143.644531 252.449219 143.871094 252.851562 C 144.105469 253.253906 144.421875 253.566406 144.824219 253.789062 C 145.226562 254.015625 145.679688 254.125 146.183594 254.125 Z M 146.183594 254.125 " fill-opacity="1" fill-rule="nonzero"/><path fill="#000000" d="M 161.792969 247.71875 L 161.792969 255.25 L 160.636719 255.25 L 156.496094 250.152344 L 156.496094 255.25 L 155.105469 255.25 L 155.105469 247.71875 L 156.261719 247.71875 L 160.402344 252.816406 L 160.402344 247.71875 Z M 161.792969 247.71875 " fill-opacity="1" fill-rule="nonzero"/><path fill="#000000" d="M 169.53125 255.347656 C 168.949219 255.347656 168.390625 255.269531 167.855469 255.113281 C 167.320312 254.945312 166.886719 254.730469 166.5625 254.460938 L 167.050781 253.371094 C 167.359375 253.617188 167.742188 253.820312 168.191406 253.972656 C 168.636719 254.121094 169.082031 254.191406 169.53125 254.191406 C 170.089844 254.191406 170.507812 254.105469 170.789062 253.925781 C 171.066406 253.75 171.210938 253.511719 171.210938 253.21875 C 171.210938 253.011719 171.128906 252.835938 170.972656 252.699219 C 170.816406 252.558594 170.621094 252.445312 170.386719 252.363281 C 170.152344 252.289062 169.824219 252.195312 169.414062 252.097656 C 168.84375 251.953125 168.378906 251.8125 168.023438 251.675781 C 167.675781 251.542969 167.375 251.332031 167.117188 251.039062 C 166.859375 250.75 166.730469 250.359375 166.730469 249.867188 C 166.730469 249.457031 166.839844 249.078125 167.066406 248.742188 C 167.289062 248.398438 167.628906 248.121094 168.089844 247.921875 C 168.546875 247.71875 169.105469 247.621094 169.765625 247.621094 C 170.222656 247.621094 170.671875 247.679688 171.109375 247.789062 C 171.554688 247.898438 171.9375 248.066406 172.265625 248.289062 L 171.828125 249.363281 C 171.492188 249.175781 171.144531 249.027344 170.789062 248.925781 C 170.429688 248.828125 170.085938 248.777344 169.75 248.777344 C 169.199219 248.777344 168.792969 248.871094 168.527344 249.0625 C 168.257812 249.242188 168.125 249.488281 168.125 249.800781 C 168.125 250.011719 168.195312 250.191406 168.339844 250.335938 C 168.496094 250.46875 168.695312 250.578125 168.929688 250.65625 C 169.171875 250.734375 169.5 250.820312 169.902344 250.921875 C 170.457031 251.046875 170.914062 251.183594 171.277344 251.324219 C 171.632812 251.460938 171.9375 251.671875 172.199219 251.960938 C 172.453125 252.242188 172.585938 252.628906 172.585938 253.121094 C 172.585938 253.535156 172.464844 253.914062 172.230469 254.257812 C 172.003906 254.59375 171.664062 254.863281 171.210938 255.0625 C 170.746094 255.253906 170.191406 255.347656 169.53125 255.347656 Z M 169.53125 255.347656 " fill-opacity="1" fill-rule="nonzero"/><path fill="#000000" d="M 180.839844 255.347656 C 180.078125 255.347656 179.390625 255.191406 178.777344 254.863281 C 178.160156 254.527344 177.679688 254.070312 177.335938 253.488281 C 176.988281 252.898438 176.816406 252.230469 176.816406 251.492188 C 176.816406 250.753906 176.988281 250.09375 177.335938 249.496094 C 177.691406 248.90625 178.179688 248.449219 178.796875 248.121094 C 179.40625 247.789062 180.09375 247.621094 180.859375 247.621094 C 181.46875 247.621094 182.03125 247.726562 182.535156 247.9375 C 183.046875 248.152344 183.476562 248.464844 183.824219 248.878906 L 182.917969 249.730469 C 182.382812 249.140625 181.710938 248.84375 180.90625 248.84375 C 180.390625 248.84375 179.925781 248.957031 179.515625 249.179688 C 179.113281 249.40625 178.796875 249.714844 178.558594 250.117188 C 178.332031 250.519531 178.226562 250.980469 178.226562 251.492188 C 178.226562 251.996094 178.332031 252.449219 178.558594 252.851562 C 178.796875 253.253906 179.113281 253.566406 179.515625 253.789062 C 179.925781 254.015625 180.390625 254.125 180.90625 254.125 C 181.710938 254.125 182.382812 253.832031 182.917969 253.238281 L 183.824219 254.09375 C 183.476562 254.507812 183.046875 254.820312 182.535156 255.03125 C 182.019531 255.246094 181.453125 255.347656 180.839844 255.347656 Z M 180.839844 255.347656 " fill-opacity="1" fill-rule="nonzero"/><path fill="#000000" d="M 188.558594 247.71875 L 189.964844 247.71875 L 189.964844 255.25 L 188.558594 255.25 Z M 188.558594 247.71875 " fill-opacity="1" fill-rule="nonzero"/><path fill="#000000" d="M 201.027344 254.074219 L 201.027344 255.25 L 195.375 255.25 L 195.375 247.71875 L 200.875 247.71875 L 200.875 248.894531 L 196.785156 248.894531 L 196.785156 250.855469 L 200.40625 250.855469 L 200.40625 251.996094 L 196.785156 251.996094 L 196.785156 254.074219 Z M 201.027344 254.074219 " fill-opacity="1" fill-rule="nonzero"/><path fill="#000000" d="M 212.660156 247.71875 L 212.660156 255.25 L 211.503906 255.25 L 207.359375 250.152344 L 207.359375 255.25 L 205.96875 255.25 L 205.96875 247.71875 L 207.125 247.71875 L 211.265625 252.816406 L 211.265625 247.71875 Z M 212.660156 247.71875 " fill-opacity="1" fill-rule="nonzero"/><path fill="#000000" d="M 219.59375 248.910156 L 217.109375 248.910156 L 217.109375 247.71875 L 223.480469 247.71875 L 223.480469 248.910156 L 221 248.910156 L 221 255.25 L 219.59375 255.25 Z M 219.59375 248.910156 " fill-opacity="1" fill-rule="nonzero"/><path fill="#000000" d="M 233.578125 254.074219 L 233.578125 255.25 L 227.925781 255.25 L 227.925781 247.71875 L 233.425781 247.71875 L 233.425781 248.894531 L 229.335938 248.894531 L 229.335938 250.855469 L 232.957031 250.855469 L 232.957031 251.996094 L 229.335938 251.996094 L 229.335938 254.074219 Z M 233.578125 254.074219 " fill-opacity="1" fill-rule="nonzero"/></svg>