<svg xmlns="http://www.w3.org/2000/svg" xmlns:xlink="http://www.w3.org/1999/xlink" width="500" zoomAndPan="magnify" viewBox="0 0 375 374.999991" height="500" preserveAspectRatio="xMidYMid meet" version="1.0"><defs><g/><clipPath id="ce212d5a6f"><path d="M 134 110.804688 L 301.777344 110.804688 L 301.777344 264 L 134 264 Z M 134 110.804688 " clip-rule="nonzero"/></clipPath><clipPath id="f57f72e7e7"><path d="M 73.027344 159 L 159 159 L 159 264.554688 L 73.027344 264.554688 Z M 73.027344 159 " clip-rule="nonzero"/></clipPath><clipPath id="4d0d8c431f"><path d="M 47 45.660156 L 280 45.660156 L 280 124.410156 L 47 124.410156 Z M 47 45.660156 " clip-rule="nonzero"/></clipPath><clipPath id="2874344d83"><path d="M 83 22 L 119 22 L 119 51.585938 L 83 51.585938 Z M 83 22 " clip-rule="nonzero"/></clipPath><clipPath id="de283860b8"><path d="M 109 237.855469 L 136.355469 237.855469 L 136.355469 265.605469 L 109 265.605469 Z M 109 237.855469 " clip-rule="nonzero"/></clipPath></defs><g clip-path="url(#ce212d5a6f)"><path fill="#f3f2f0" d="M 178.136719 250.449219 C 178.214844 248.914062 178.289062 247.386719 178.367188 245.859375 C 178.117188 241.394531 177.808594 237.660156 177.546875 234.90625 C 176.949219 228.488281 176.5625 224.464844 175.460938 219.148438 C 174.917969 216.5625 174.390625 214.007812 173.28125 210.644531 C 172.953125 209.660156 171.75 206.09375 167.910156 198.496094 C 164.636719 192.011719 164.800781 193.203125 162.824219 188.9375 C 162.824219 188.9375 160.585938 184.125 158.050781 175.390625 C 157.679688 174.167969 157.441406 172.917969 157.332031 171.644531 C 157.246094 170.625 157.246094 169.601562 157.332031 168.582031 C 157.957031 166.597656 158.460938 164.578125 158.835938 162.53125 C 159.351562 159.71875 159.605469 158.316406 159.449219 156.417969 C 159.113281 152.542969 157.257812 149.238281 155.71875 148.875 C 155.136719 148.742188 154.550781 148.722656 153.960938 148.8125 C 153.632812 148.878906 153.359375 148.976562 152.824219 149.175781 C 152.289062 149.378906 151.742188 149.601562 151.414062 149.75 C 151.179688 149.859375 150.933594 149.925781 150.675781 149.957031 C 150.359375 149.992188 150.042969 149.972656 149.734375 149.894531 C 148.472656 149.617188 148.742188 149.835938 147.152344 149.414062 C 145.816406 149.0625 145.585938 148.890625 141.835938 147.492188 C 141.246094 147.28125 140.675781 147.023438 140.128906 146.714844 C 139.890625 146.574219 139.222656 146.191406 138.632812 145.679688 C 137.5 144.699219 136.957031 143.519531 136.597656 142.703125 C 135.96875 141.265625 135.640625 139.757812 135.621094 138.183594 C 135.554688 137.875 135.449219 137.386719 135.292969 136.804688 C 134.988281 135.707031 134.816406 135.429688 134.703125 134.644531 C 134.609375 134.03125 134.539062 133.523438 134.757812 132.953125 C 134.914062 132.539062 135.152344 132.273438 135.371094 132.027344 C 135.71875 131.632812 136.128906 131.316406 136.597656 131.078125 L 138.277344 130.167969 C 139.800781 129.332031 139.921875 129.242188 140.84375 128.75 C 141.636719 128.328125 142.566406 127.84375 143.277344 127.476562 C 144.53125 126.828125 144.8125 126.691406 145.269531 126.335938 C 145.816406 125.902344 146.296875 125.40625 146.710938 124.84375 C 147.003906 124.449219 147.304688 124.027344 147.523438 123.390625 C 147.667969 122.984375 147.75 122.570312 147.773438 122.144531 C 147.785156 121.480469 147.792969 120.816406 147.800781 120.148438 C 147.945312 119.710938 148.140625 119.300781 148.390625 118.914062 C 148.632812 118.542969 148.914062 118.207031 149.234375 117.902344 C 149.714844 117.445312 150.019531 117.320312 151.070312 116.703125 C 151.398438 116.507812 150.695312 116.917969 153.195312 115.410156 C 154.144531 114.832031 154.617188 114.542969 154.734375 114.484375 C 156.152344 113.636719 157.628906 112.902344 159.164062 112.28125 C 159.59375 112.109375 160.097656 111.917969 160.800781 111.699219 C 161.597656 111.449219 163.050781 111.003906 164.972656 110.871094 C 165.917969 110.800781 166.859375 110.816406 167.800781 110.914062 C 168.375 110.929688 168.941406 110.996094 169.503906 111.109375 C 169.953125 111.199219 170.453125 111.300781 171.074219 111.574219 C 171.402344 111.722656 171.71875 111.894531 172.015625 112.09375 L 173.25 112.882812 L 175.070312 114.0625 L 176.445312 114.953125 C 178.34375 116.1875 180.027344 117.621094 180.648438 118.160156 C 181.445312 118.839844 182.253906 119.539062 183.253906 120.585938 C 184.25 121.632812 184.804688 122.335938 185.011719 122.597656 C 185.699219 123.46875 186.167969 124.167969 186.515625 124.691406 C 187.207031 125.730469 187.675781 126.546875 187.886719 126.914062 C 188.886719 128.632812 189.75 130.027344 191.476562 132.820312 C 191.855469 133.425781 191.671875 133.125 194.070312 136.875 C 196.996094 141.464844 197.398438 142.109375 198.429688 143.640625 C 199.003906 144.476562 199.574219 145.296875 200.730469 146.945312 C 202.015625 148.78125 202.703125 149.761719 203.429688 150.769531 C 205.808594 154.0625 207.847656 156.582031 209.515625 158.625 C 210.773438 160.183594 212.035156 161.679688 212.179688 161.855469 L 213.355469 163.234375 C 215.554688 165.816406 216.667969 167.171875 218.644531 169.496094 C 220.734375 171.949219 222.332031 173.773438 224.96875 176.796875 C 226.292969 178.316406 227.414062 179.59375 228.226562 180.519531 L 236.097656 189.546875 C 237.660156 191.347656 239.238281 193.148438 240.828125 194.953125 C 242.140625 196.449219 243.453125 197.925781 244.761719 199.394531 L 248.078125 203.105469 L 251.519531 207.1875 L 254.375 210.839844 C 255.03125 211.765625 255.691406 212.695312 256.351562 213.625 C 257.097656 214.855469 257.847656 216.082031 258.601562 217.3125 L 261.011719 221.910156 C 261.398438 222.859375 261.792969 223.808594 262.191406 224.757812 C 262.5625 225.710938 262.925781 226.746094 263.269531 227.859375 C 263.609375 228.972656 263.847656 229.863281 264.066406 230.785156 C 264.285156 231.710938 264.382812 232.476562 264.546875 233.324219 C 264.914062 235.40625 265.027344 237.503906 264.886719 239.613281 C 264.863281 240.058594 264.820312 240.539062 264.746094 241.054688 C 264.671875 241.570312 264.613281 241.875 264.535156 242.242188 L 264.535156 244.40625 C 264.601562 244.808594 264.691406 245.203125 264.800781 245.59375 C 264.960938 246.140625 265.136719 246.742188 265.519531 247.417969 C 265.921875 248.128906 266.445312 248.738281 267.089844 249.242188 C 267.378906 249.472656 267.824219 249.820312 268.5 250.050781 C 268.875 250.183594 269.257812 250.253906 269.65625 250.265625 C 270.0625 250.265625 270.460938 250.203125 270.847656 250.078125 C 271.460938 249.882812 271.863281 249.609375 272.351562 249.28125 C 272.917969 248.894531 273.441406 248.457031 273.925781 247.972656 C 274.9375 247.164062 275.855469 246.257812 276.675781 245.257812 C 277.296875 244.511719 277.847656 243.71875 278.335938 242.878906 C 278.703125 242.238281 279.03125 241.578125 279.316406 240.898438 C 279.78125 239.769531 280.128906 238.605469 280.363281 237.40625 C 280.800781 235.152344 280.726562 233.371094 280.652344 231.941406 C 280.605469 230.96875 280.527344 229.519531 280.089844 227.691406 C 279.863281 226.757812 279.65625 225.90625 279.1875 224.929688 C 278.785156 224.074219 277.960938 222.652344 276.304688 221.328125 C 275.445312 220.753906 274.242188 219.933594 272.835938 218.886719 C 271.226562 217.6875 270.304688 217.007812 269.234375 215.992188 C 268.019531 214.839844 266.925781 213.578125 265.960938 212.207031 C 265.550781 211.609375 265.246094 210.957031 265.054688 210.253906 C 264.886719 209.621094 264.804688 208.976562 264.8125 208.320312 C 264.808594 207.683594 264.867188 207.054688 264.996094 206.433594 C 265.046875 206.113281 265.128906 205.800781 265.246094 205.496094 C 265.480469 204.902344 265.796875 204.511719 266.042969 204.214844 C 266.296875 203.886719 266.585938 203.597656 266.917969 203.351562 C 267.429688 202.964844 267.878906 202.800781 268.328125 202.652344 C 269.027344 202.410156 269.746094 202.269531 270.484375 202.230469 C 270.835938 202.199219 271.339844 202.167969 271.9375 202.132812 C 272.777344 202.089844 273.207031 202.066406 273.753906 202.074219 C 274.304688 202.078125 274.832031 202.128906 275.390625 202.183594 C 276.480469 202.292969 277.332031 202.429688 277.734375 202.503906 C 280.355469 202.976562 282.867188 203.789062 285.265625 204.945312 C 286.550781 205.539062 287.449219 206.050781 288.390625 206.59375 C 289.707031 207.335938 290.59375 207.84375 291.714844 208.679688 C 292.230469 209.070312 292.6875 209.441406 293.179688 209.839844 C 294.042969 210.554688 294.535156 210.960938 295.121094 211.515625 C 295.910156 212.265625 296.636719 213.070312 297.304688 213.929688 C 297.90625 214.714844 298.453125 215.539062 298.945312 216.398438 C 299.660156 217.636719 300.257812 218.933594 300.734375 220.28125 C 301.148438 221.425781 301.453125 222.597656 301.652344 223.796875 C 301.804688 224.722656 301.890625 225.65625 301.902344 226.59375 L 301.914062 230.75 C 301.886719 231.515625 301.816406 232.488281 301.691406 233.609375 C 301.539062 234.898438 301.316406 236.175781 301.027344 237.441406 C 300.660156 239.019531 300.171875 240.554688 299.5625 242.050781 C 298.996094 243.402344 298.335938 244.703125 297.570312 245.953125 C 296.445312 247.8125 295.398438 249.066406 294.640625 249.96875 C 293.566406 251.230469 292.421875 252.421875 291.203125 253.542969 C 290.035156 254.621094 288.144531 256.355469 285.351562 258.070312 C 283.976562 258.914062 282.546875 259.65625 281.0625 260.289062 C 278.347656 261.492188 275.535156 262.375 272.625 262.949219 L 266.667969 263.753906 L 263.53125 263.875 C 258.195312 263.863281 253.898438 263.867188 250.894531 263.875 C 247.339844 263.878906 245.207031 263.890625 241.238281 263.886719 L 235.308594 263.875 L 227.917969 263.886719 L 219.648438 263.898438 L 214.429688 263.875 C 214.484375 263.539062 214.488281 263.199219 214.441406 262.863281 C 214.382812 262.433594 214.253906 262.132812 214.011719 261.582031 C 213.832031 261.167969 213.632812 260.765625 213.410156 260.375 C 213.382812 260.210938 213.382812 260.046875 213.410156 259.882812 C 213.460938 259.570312 213.59375 259.296875 213.808594 259.066406 C 214.03125 258.757812 214.230469 258.433594 214.398438 258.09375 C 214.601562 257.6875 214.746094 257.304688 214.976562 256.523438 C 215.210938 255.746094 215.386719 255.132812 215.582031 254.160156 C 215.742188 253.34375 215.859375 252.523438 215.933594 251.695312 L 215.933594 247.757812 C 215.871094 247.507812 215.785156 247.132812 215.695312 246.675781 C 215.5 245.734375 215.441406 245.203125 215.359375 244.753906 C 215.195312 243.785156 214.941406 243.105469 214.570312 242.125 C 214.199219 241.136719 213.753906 240.183594 213.226562 239.265625 C 212.589844 238.175781 211.847656 237.160156 211 236.226562 C 210.214844 235.335938 209.449219 234.628906 208.207031 233.476562 L 207.320312 232.671875 L 207.320312 230.066406 C 207.472656 229.386719 207.675781 228.722656 207.933594 228.074219 C 208.1875 227.414062 208.4375 226.777344 208.929688 226.042969 C 209.265625 225.542969 209.417969 225.4375 209.875 224.734375 C 210.121094 224.371094 210.339844 223.996094 210.535156 223.609375 C 210.832031 223.003906 211.054688 222.375 211.207031 221.722656 C 211.472656 220.832031 211.65625 220.0625 211.773438 219.464844 C 211.949219 218.570312 212.039062 217.859375 212.101562 217.3125 C 212.160156 216.765625 212.210938 216.296875 212.242188 215.941406 C 212.246094 214.726562 212.253906 213.507812 212.265625 212.292969 C 212.136719 211.792969 212.003906 211.378906 211.898438 211.070312 C 211.796875 210.757812 211.730469 210.609375 211.570312 210.441406 C 211.402344 210.273438 211.203125 210.171875 210.96875 210.132812 C 210.882812 210.121094 210.652344 210.101562 210.203125 210.347656 C 209.855469 210.539062 209.644531 210.753906 209.410156 210.972656 C 208.554688 211.789062 208.578125 211.671875 208.128906 212.152344 C 207.882812 212.410156 207.800781 212.523438 207.277344 213.179688 C 206.167969 214.566406 206.167969 214.511719 205.707031 215.128906 C 205.246094 215.742188 204.878906 216.214844 204.476562 216.867188 C 204.078125 217.519531 203.746094 218.230469 203.171875 219.511719 C 202.59375 220.796875 202.269531 221.507812 202.082031 222.164062 C 201.960938 222.585938 201.878906 222.933594 201.648438 223.4375 C 201.40625 223.964844 201.09375 224.449219 200.71875 224.890625 C 200.648438 224.9375 200.570312 224.964844 200.488281 224.976562 C 200.238281 225 200.0625 224.800781 200.035156 224.769531 C 199.882812 224.664062 199.753906 224.539062 199.648438 224.386719 C 199.570312 224.269531 199.5 224.117188 199.375 223.820312 C 199.320312 223.679688 199.234375 223.492188 199.160156 223.316406 C 198.886719 222.75 198.511719 221.988281 198.023438 221.09375 C 197.640625 220.390625 197.039062 219.28125 196.269531 218.144531 C 195.503906 217.007812 194.730469 216.101562 193.285156 214.457031 C 192.5625 213.632812 191.582031 212.546875 190.375 211.308594 C 190.222656 211.125 190.035156 210.992188 189.8125 210.910156 C 189.335938 210.753906 188.929688 210.949219 188.753906 211.035156 C 188.453125 211.179688 188.207031 211.394531 188.023438 211.671875 C 187.941406 212 187.859375 212.335938 187.773438 212.664062 C 187.730469 213.082031 187.695312 213.507812 187.652344 213.929688 C 187.65625 214.195312 187.675781 214.574219 187.71875 215.019531 C 187.773438 215.601562 187.839844 216.050781 187.929688 216.605469 C 188.1875 218.097656 188.308594 218.84375 188.492188 219.539062 C 188.644531 220.140625 188.832031 220.734375 189.054688 221.3125 C 189.257812 221.8125 189.441406 222.171875 189.796875 222.871094 C 189.902344 223.085938 190.320312 223.90625 191.015625 225.117188 C 191.707031 226.328125 191.527344 225.957031 192.230469 227.183594 C 192.597656 227.835938 193 228.546875 193.425781 229.035156 C 193.589844 229.222656 193.742188 229.417969 193.910156 229.601562 C 194.082031 229.78125 194.226562 229.929688 194.332031 230.105469 C 194.4375 230.292969 194.511719 230.488281 194.550781 230.699219 L 194.550781 232.238281 C 194.472656 232.417969 194.367188 232.625 194.238281 232.855469 C 194.089844 233.121094 193.917969 233.378906 193.730469 233.621094 C 193.585938 233.804688 193.433594 233.980469 193.273438 234.148438 C 193.273438 234.148438 193.121094 234.320312 192.355469 235.234375 C 191.585938 236.144531 190.90625 237.214844 190.296875 238.171875 C 189.785156 238.972656 189.425781 239.59375 189.207031 239.972656 C 188.8125 240.664062 188.605469 241.023438 188.363281 241.546875 C 188.0625 242.207031 187.8125 242.882812 187.613281 243.578125 C 187.347656 244.484375 187.15625 245.40625 187.050781 246.339844 C 186.957031 247.082031 186.953125 247.59375 186.933594 248.585938 C 186.910156 250.050781 186.898438 250.789062 187.023438 251.695312 C 187.195312 252.867188 187.488281 253.75 187.730469 254.457031 C 187.96875 255.171875 188.253906 255.871094 188.582031 256.550781 C 189.113281 257.640625 189.757812 258.660156 190.511719 259.609375 L 190.492188 260.449219 C 190.304688 260.558594 190.125 260.683594 189.957031 260.820312 C 189.601562 261.109375 189.285156 261.433594 189 261.792969 C 188.683594 262.195312 188.429688 262.523438 188.242188 263.039062 C 188.136719 263.324219 188.074219 263.621094 188.046875 263.921875 L 186.835938 263.921875 C 186.277344 263.921875 185.875 263.929688 185.765625 263.933594 C 183.253906 263.964844 181.140625 263.878906 181.140625 263.878906 C 179.890625 263.824219 179.785156 263.78125 178.648438 263.757812 C 177.511719 263.734375 177.359375 263.757812 176.410156 263.753906 C 174.707031 263.71875 173.019531 263.558594 171.339844 263.265625 C 170.648438 263.144531 170.035156 263.011719 169.4375 262.523438 C 169.230469 262.351562 168.671875 261.878906 168.433594 261.058594 C 168.277344 260.503906 168.347656 260.066406 168.457031 259.371094 C 168.605469 258.511719 168.886719 257.695312 169.296875 256.925781 C 169.5625 256.410156 169.882812 255.929688 170.253906 255.484375 C 170.671875 254.980469 171.15625 254.546875 171.707031 254.1875 C 172.511719 253.671875 173.394531 253.367188 174.347656 253.277344 L 175.984375 253.203125 C 176.230469 253.171875 176.460938 253.097656 176.683594 252.984375 C 176.972656 252.832031 177.214844 252.625 177.414062 252.363281 C 177.980469 251.664062 178.105469 250.800781 178.136719 250.449219 Z M 178.136719 250.449219 " fill-opacity="1" fill-rule="nonzero"/></g><g clip-path="url(#f57f72e7e7)"><path fill="#f3f2f0" d="M 124.28125 264.136719 C 126.960938 264.171875 129.695312 264.179688 132.480469 264.160156 C 135.136719 264.140625 137.75 264.089844 140.324219 264.015625 C 140.890625 264.089844 141.441406 264.035156 141.984375 263.847656 C 142.15625 263.789062 142.320312 263.714844 142.480469 263.628906 C 142.585938 263.507812 142.660156 263.375 142.707031 263.222656 C 142.8125 262.90625 142.761719 262.621094 142.6875 262.308594 C 142.542969 261.753906 142.335938 261.21875 142.074219 260.703125 C 141.878906 260.320312 141.632812 259.964844 141.34375 259.644531 C 140.953125 259.203125 140.5 258.84375 139.980469 258.5625 C 139.308594 258.175781 138.589844 257.917969 137.820312 257.796875 L 131.363281 257.949219 L 130.582031 257.929688 L 130.582031 257.273438 C 130.746094 257.175781 130.992188 257.03125 131.269531 256.835938 C 131.550781 256.640625 131.792969 256.421875 132.476562 255.78125 C 133.15625 255.144531 133.550781 254.777344 133.78125 254.523438 C 134.015625 254.269531 134.183594 254.074219 134.539062 253.617188 C 135.113281 252.882812 135.710938 252.113281 136.351562 250.996094 C 136.867188 250.089844 137.304688 249.152344 137.671875 248.179688 C 137.992188 247.351562 138.246094 246.503906 138.425781 245.636719 C 138.539062 245.070312 138.605469 244.578125 138.648438 244.210938 L 138.648438 241.050781 C 138.589844 240.71875 138.503906 240.300781 138.371094 239.832031 C 138.246094 239.386719 138.101562 238.949219 137.933594 238.519531 C 137.738281 238.011719 137.511719 237.519531 137.257812 237.039062 C 137.042969 236.644531 136.804688 236.265625 136.542969 235.902344 C 136.320312 235.59375 136.078125 235.292969 135.820312 235.007812 L 136.0625 235.007812 L 136.855469 235.695312 C 137.335938 236.109375 137.410156 236.164062 137.566406 236.320312 C 137.847656 236.609375 138.097656 236.921875 138.316406 237.257812 C 138.886719 238.058594 139.246094 238.941406 139.390625 239.910156 C 139.449219 240.246094 139.488281 240.582031 139.5 240.921875 C 139.550781 241.699219 139.59375 242.484375 139.628906 243.28125 C 139.699219 244.695312 139.742188 246.082031 139.757812 247.441406 C 139.867188 248.566406 140 249.535156 140.128906 250.308594 C 140.21875 250.875 140.359375 251.730469 140.621094 252.855469 C 140.777344 253.539062 140.957031 254.285156 141.265625 255.234375 C 141.574219 256.183594 141.679688 256.234375 142.085938 257.390625 C 142.273438 257.917969 142.292969 258.039062 142.945312 260.1875 C 143.480469 261.957031 143.546875 262.144531 143.722656 262.433594 C 144.300781 263.363281 145.148438 263.863281 145.773438 264.136719 L 149.378906 264.152344 L 150.65625 264.140625 C 151.039062 264.117188 151.398438 264.019531 151.742188 263.855469 C 151.992188 263.734375 152.355469 263.558594 152.671875 263.148438 C 152.894531 262.851562 153.042969 262.523438 153.117188 262.160156 L 153.105469 260.710938 C 152.917969 260.253906 152.65625 259.847656 152.320312 259.488281 C 151.875 259.007812 151.34375 258.660156 150.726562 258.449219 L 149.398438 258.449219 C 149.195312 258.316406 149.011719 258.160156 148.851562 257.980469 C 148.664062 257.761719 148.515625 257.519531 148.402344 257.253906 C 148.089844 256.578125 147.914062 255.898438 147.78125 255.332031 C 147.648438 254.765625 147.519531 254.242188 147.367188 253.429688 C 147.214844 252.613281 147.128906 251.871094 147.113281 251.726562 C 147.113281 251.726562 147.039062 251.054688 146.996094 250.320312 C 146.886719 248.445312 147.050781 246.097656 147.082031 245.679688 C 147.113281 245.257812 147.171875 244.613281 147.277344 243.902344 C 147.453125 242.671875 147.660156 241.773438 147.871094 240.855469 C 148.238281 239.289062 148.609375 238.0625 148.828125 237.367188 C 149.046875 236.675781 149.265625 236.058594 149.757812 234.6875 C 150.597656 232.3125 150.644531 232.28125 151.035156 231.121094 C 151.65625 229.257812 151.996094 227.976562 152.074219 227.675781 C 152.324219 226.710938 152.5625 225.808594 152.746094 224.582031 C 152.882812 223.65625 152.953125 222.871094 152.988281 222.292969 C 152.980469 221.410156 152.980469 220.53125 152.976562 219.648438 C 152.933594 219.398438 152.867188 219.027344 152.789062 218.578125 C 152.617188 217.601562 152.53125 217.117188 152.457031 216.777344 C 152.296875 216.039062 152.082031 215.3125 151.820312 214.605469 C 151.425781 213.527344 150.988281 212.710938 150.355469 211.519531 C 149.859375 210.609375 149.582031 210.15625 149.417969 209.355469 C 149.320312 208.890625 149.28125 208.421875 149.300781 207.949219 C 149.285156 207.585938 149.328125 207.234375 149.429688 206.882812 C 149.519531 206.574219 149.617188 206.238281 149.910156 205.933594 C 150.125 205.71875 150.378906 205.570312 150.675781 205.496094 C 151.359375 205.386719 151.921875 205.265625 152.335938 205.164062 C 153.226562 204.949219 153.96875 204.761719 154.84375 204.304688 C 155.179688 204.136719 155.46875 203.984375 155.816406 203.695312 C 156.332031 203.265625 156.632812 202.820312 156.929688 202.363281 C 157.226562 201.910156 157.28125 201.714844 157.933594 200.535156 L 158.390625 199.730469 C 158.445312 199.472656 158.445312 199.214844 158.390625 198.957031 C 158.3125 198.640625 158.164062 198.453125 158.011719 198.222656 C 157.859375 197.992188 157.683594 197.605469 157.433594 197.011719 C 157.09375 196.203125 156.960938 195.507812 156.863281 194.996094 C 156.78125 194.566406 156.722656 194.132812 156.691406 193.695312 C 156.679688 192.863281 156.675781 192.027344 156.667969 191.195312 C 156.605469 190.910156 156.53125 190.628906 156.4375 190.351562 C 156.351562 190.09375 155.9375 188.894531 154.78125 187.503906 C 154.335938 186.976562 153.851562 186.492188 153.328125 186.042969 C 152.292969 185.152344 151.171875 184.390625 149.957031 183.761719 C 149.644531 183.613281 149.367188 183.417969 149.117188 183.175781 C 148.828125 182.890625 148.59375 182.558594 148.417969 182.1875 C 148 181.375 147.648438 180.535156 147.367188 179.667969 C 147.140625 178.96875 146.960938 178.257812 146.824219 177.539062 C 146.703125 176.914062 146.617188 176.28125 146.570312 175.644531 C 146.574219 175.476562 146.53125 175.316406 146.441406 175.171875 C 146.261719 174.898438 145.957031 174.84375 145.828125 174.820312 C 145.699219 174.792969 145.597656 174.789062 145.195312 174.886719 C 144.921875 174.949219 144.660156 175.039062 144.40625 175.152344 C 143.914062 175.386719 143.464844 175.679688 143.054688 176.035156 C 142.78125 176.277344 142.191406 176.832031 141.351562 178.132812 C 140.9375 178.777344 140.625 179.375 140.023438 180.550781 C 139.265625 182.015625 139.234375 182.191406 138.777344 182.929688 C 138.144531 183.957031 137.699219 184.4375 137.238281 184.808594 C 136.902344 185.070312 136.847656 185.050781 136.410156 185.375 C 136.246094 185.496094 135.652344 185.953125 134.816406 186.882812 C 133.886719 187.890625 133.09375 189 132.4375 190.203125 C 131.160156 192.550781 130.480469 195.0625 130.394531 197.734375 C 130.296875 198.089844 130.15625 198.542969 129.96875 199.054688 C 129.710938 199.753906 129.40625 200.433594 129.054688 201.09375 C 128.492188 202.164062 127.96875 202.871094 126.992188 204.183594 C 126.738281 204.523438 126.265625 205.125 125.320312 206.324219 C 124.269531 207.667969 123.738281 208.339844 123.398438 208.757812 C 122.371094 210.003906 121.550781 210.917969 121.082031 211.433594 C 120.066406 212.546875 119.796875 212.773438 117.472656 215.144531 C 115.148438 217.519531 115.222656 217.480469 113.554688 219.160156 C 112.082031 220.640625 111.984375 220.699219 111.132812 221.59375 C 109.996094 222.78125 109.097656 223.71875 108.019531 225.050781 C 107.289062 225.957031 106.523438 226.910156 105.660156 228.308594 C 105.074219 229.257812 104.554688 230.234375 104.097656 231.25 C 103.402344 232.808594 102.871094 234.421875 102.503906 236.089844 C 102.144531 237.675781 101.9375 239.28125 101.875 240.902344 L 101.875 245.738281 C 101.949219 247.101562 102.050781 248.234375 102.144531 249.0625 C 102.234375 249.886719 102.320312 250.574219 102.429688 251.382812 C 102.539062 252.195312 102.660156 253.050781 102.855469 254.25 C 102.996094 255.070312 103.121094 255.765625 103.226562 256.277344 C 103.269531 256.394531 103.273438 256.511719 103.230469 256.632812 C 103.1875 256.753906 103.109375 256.84375 103 256.910156 C 102.8125 257.011719 102.5625 256.957031 102.375 256.78125 C 102.113281 256.648438 101.863281 256.492188 101.632812 256.3125 C 101.226562 255.996094 100.871094 255.628906 100.574219 255.210938 C 100.367188 254.9375 99.996094 254.402344 99.398438 253.070312 C 98.984375 252.15625 98.730469 251.445312 98.449219 250.671875 C 98.171875 249.898438 97.925781 249.210938 97.664062 248.324219 C 97.347656 247.207031 97.089844 246.074219 96.898438 244.929688 C 96.722656 243.871094 96.386719 241.785156 96.496094 239.179688 C 96.535156 238.371094 96.605469 237.617188 96.644531 237.246094 C 96.710938 236.597656 96.820312 235.445312 97.046875 234.265625 C 97.332031 232.757812 97.707031 231.703125 98.230469 230.226562 C 98.511719 229.441406 98.914062 228.460938 99.714844 226.507812 C 100.148438 225.449219 100.507812 224.597656 100.90625 223.644531 C 101.746094 221.648438 101.894531 221.332031 102.171875 220.644531 C 102.640625 219.519531 103.285156 217.859375 103.972656 215.71875 C 104.167969 215.074219 104.359375 214.359375 104.523438 213.578125 C 104.6875 212.792969 104.777344 212.128906 104.851562 211.484375 C 104.886719 211.144531 104.921875 210.667969 104.949219 210.109375 C 104.976562 209.609375 104.976562 209.109375 104.949219 208.613281 C 104.890625 207.789062 104.714844 206.988281 104.425781 206.214844 C 104.160156 205.496094 103.792969 204.832031 103.328125 204.21875 C 102.988281 203.785156 102.601562 203.398438 102.167969 203.058594 C 102.175781 202.929688 102.15625 202.800781 102.105469 202.679688 C 102.066406 202.574219 102.007812 202.476562 101.929688 202.390625 C 101.722656 202.097656 101.496094 201.820312 101.25 201.5625 C 100.890625 201.191406 100.707031 201.074219 100.511719 201.015625 C 100.378906 200.96875 100.246094 200.949219 100.105469 200.945312 L 99.535156 200.945312 L 98.984375 200.933594 C 98.914062 200.800781 98.859375 200.683594 98.816406 200.605469 C 98.773438 200.527344 98.742188 200.394531 98.742188 200.363281 C 98.75 200.238281 98.800781 200.132812 98.894531 200.046875 L 99.398438 199.699219 C 99.667969 199.515625 100.203125 199.144531 100.652344 198.816406 C 101.101562 198.488281 101.59375 198.082031 102.460938 197.363281 L 103.402344 196.5625 L 103.796875 196.5625 C 103.808594 196.621094 103.828125 196.679688 103.863281 196.730469 C 103.898438 196.78125 103.933594 196.828125 103.972656 196.871094 C 104.070312 196.988281 104.066406 197.011719 104.101562 197.042969 C 104.136719 197.070312 104.253906 197.097656 104.46875 196.992188 C 104.679688 196.890625 104.824219 196.664062 105.058594 196.425781 C 105.515625 195.960938 105.949219 195.464844 106.351562 194.949219 C 107.105469 193.964844 107.550781 193.050781 107.886719 192.363281 C 108.355469 191.402344 108.605469 190.671875 109.011719 189.511719 C 109.375 188.46875 109.59375 187.699219 109.863281 186.761719 C 110.289062 185.28125 110.417969 184.65625 110.476562 184.320312 C 110.597656 183.675781 110.664062 183.136719 110.707031 182.746094 L 110.695312 180.3125 C 110.617188 179.785156 110.5 179.265625 110.347656 178.753906 C 110.277344 178.519531 110.203125 178.285156 110.125 178.074219 L 110.125 177.53125 C 110.265625 177.234375 110.398438 176.929688 110.539062 176.632812 L 111.4375 175.300781 L 112.121094 174.011719 L 112.300781 173.414062 L 112.285156 172.335938 L 112.671875 171.964844 L 113.429688 171.933594 L 114.480469 171.953125 C 114.792969 171.898438 115.09375 171.808594 115.386719 171.6875 C 115.617188 171.585938 115.839844 171.472656 116.054688 171.34375 C 116.324219 171.191406 116.542969 171.046875 116.707031 170.933594 C 116.75 170.882812 116.796875 170.835938 116.839844 170.78125 C 116.882812 170.726562 116.914062 170.695312 116.949219 170.652344 L 117.078125 170.652344 C 117.109375 170.703125 117.140625 170.753906 117.167969 170.808594 C 117.230469 170.925781 117.28125 171.042969 117.316406 171.167969 C 117.316406 171.515625 117.320312 171.863281 117.320312 172.203125 C 117.300781 172.285156 117.277344 172.363281 117.25 172.441406 C 117.199219 172.546875 117.140625 172.652344 117.078125 172.75 C 117.023438 172.835938 116.976562 172.929688 116.9375 173.023438 C 116.914062 173.089844 116.847656 173.296875 116.945312 173.480469 C 116.976562 173.542969 117.023438 173.597656 117.082031 173.640625 C 117.140625 173.640625 117.199219 173.640625 117.253906 173.632812 C 117.316406 173.621094 117.375 173.601562 117.429688 173.570312 C 117.546875 173.5 117.652344 173.417969 117.753906 173.328125 C 117.914062 173.179688 118.0625 173.015625 118.191406 172.835938 C 119.035156 171.660156 119.078125 171.601562 119.164062 171.425781 C 119.308594 171.132812 119.425781 170.828125 119.523438 170.519531 C 119.683594 170.050781 119.808594 169.578125 119.902344 169.09375 C 119.9375 168.699219 119.980469 168.308594 120.015625 167.914062 C 120.015625 167.703125 120.011719 167.488281 120.011719 167.277344 C 120.011719 166.925781 119.972656 166.582031 119.894531 166.242188 C 119.832031 165.976562 119.746094 165.71875 119.640625 165.46875 L 119.144531 164.421875 C 119.0625 164.125 118.980469 163.828125 118.898438 163.523438 C 118.859375 163.089844 118.816406 162.660156 118.773438 162.226562 C 118.710938 162.046875 118.632812 161.875 118.539062 161.710938 C 118.398438 161.472656 118.226562 161.253906 118.03125 161.058594 C 117.8125 160.820312 117.566406 160.605469 117.304688 160.414062 C 117.109375 160.265625 116.90625 160.136719 116.6875 160.03125 C 116.5625 159.976562 116.4375 159.929688 116.304688 159.890625 L 113.511719 159.769531 L 110.574219 159.769531 C 109.949219 159.816406 108.914062 159.964844 107.878906 160.4375 C 107.488281 160.609375 107.121094 160.820312 106.777344 161.070312 C 106.621094 161.191406 106.472656 161.3125 105.898438 161.867188 C 104.921875 162.808594 105.003906 162.792969 104.691406 163.042969 C 104.273438 163.375 103.824219 163.667969 103.347656 163.917969 C 102.921875 164.148438 102.539062 164.320312 102.253906 164.441406 C 102.1875 164.46875 102.140625 164.511719 102.113281 164.574219 C 102.078125 164.652344 102.078125 164.730469 102.113281 164.804688 C 102.148438 164.898438 102.191406 164.988281 102.246094 165.074219 C 102.320312 165.199219 102.363281 165.238281 102.363281 165.296875 C 102.363281 165.359375 102.1875 165.554688 102.125 165.597656 C 101.828125 165.792969 101.578125 166.070312 101.265625 166.242188 C 100.816406 166.496094 100.40625 166.796875 100.03125 167.152344 C 100.007812 167.171875 99.917969 167.25 99.921875 167.34375 C 99.929688 167.433594 99.960938 167.441406 100.03125 167.523438 L 100.164062 167.652344 C 100.230469 167.707031 100.269531 167.773438 100.289062 167.851562 C 100.292969 167.929688 100.285156 168 100.257812 168.074219 C 100.238281 168.144531 100.210938 168.210938 100.171875 168.273438 C 100.050781 168.460938 99.878906 168.707031 99.667969 168.972656 C 99.363281 169.351562 99.03125 169.703125 98.667969 170.023438 C 98.40625 170.253906 98.132812 170.460938 97.84375 170.652344 C 96.953125 171.277344 96.769531 171.265625 96.359375 171.6875 C 96.125 171.921875 95.921875 172.183594 95.75 172.472656 C 95.519531 172.828125 95.453125 173.023438 95.136719 173.644531 C 94.929688 174.039062 94.8125 174.265625 94.65625 174.53125 C 94.273438 175.15625 93.824219 175.722656 93.296875 176.230469 C 93.066406 176.449219 93.109375 176.382812 92.566406 176.863281 C 92.441406 176.980469 92.128906 177.253906 91.582031 177.777344 C 91.035156 178.296875 90.5 178.796875 89.738281 179.589844 C 88.980469 180.378906 89.074219 180.335938 88.757812 180.621094 C 88.441406 180.910156 87.726562 181.523438 87.171875 182.039062 C 86.96875 182.226562 86.804688 182.445312 86.683594 182.695312 C 86.628906 182.820312 86.585938 182.945312 86.550781 183.074219 L 86.550781 184.113281 C 86.472656 184.304688 86.351562 184.566406 86.203125 184.882812 C 86.132812 185.03125 85.960938 185.390625 85.820312 185.664062 C 85.566406 186.144531 85.363281 186.425781 85.089844 186.839844 C 84.457031 187.789062 84.140625 188.261719 83.863281 188.90625 C 83.785156 189.089844 83.644531 189.503906 83.363281 190.335938 C 83.082031 191.171875 83.042969 191.359375 82.890625 191.75 C 82.835938 191.894531 82.664062 192.320312 82.152344 193.304688 C 81.582031 194.402344 81.476562 194.46875 80.917969 195.527344 C 80.359375 196.585938 80.644531 196.179688 80.058594 197.332031 C 80.058594 197.332031 79.652344 198.136719 79.574219 198.871094 C 79.550781 199.023438 79.554688 199.171875 79.578125 199.324219 C 79.640625 199.664062 79.785156 199.742188 79.824219 200.023438 C 79.859375 200.300781 79.78125 200.398438 79.707031 200.582031 C 79.59375 200.875 79.421875 201.128906 79.195312 201.347656 C 78.667969 201.867188 78.230469 202.46875 77.742188 203.027344 C 77.257812 203.585938 77.449219 203.433594 76.617188 204.464844 C 75.785156 205.492188 75.65625 205.578125 75.023438 206.402344 C 74.882812 206.59375 75.03125 206.402344 74.191406 207.554688 C 73.902344 207.949219 73.546875 208.441406 73.296875 209.039062 C 73.203125 209.285156 73.144531 209.542969 73.121094 209.804688 C 73.089844 210.066406 73.078125 210.195312 73.148438 210.265625 C 73.3125 210.417969 73.769531 210.175781 74.03125 209.96875 C 74.292969 209.761719 74.347656 209.675781 74.621094 209.359375 C 74.78125 209.179688 74.992188 209.054688 75.167969 208.890625 C 75.1875 208.875 75.242188 208.820312 75.273438 208.835938 C 75.304688 208.855469 75.289062 208.957031 75.285156 208.996094 C 75.265625 209.09375 75.230469 209.1875 75.175781 209.273438 C 75.132812 209.359375 75.097656 209.445312 75.046875 209.523438 C 74.917969 209.742188 74.917969 209.785156 74.574219 210.414062 C 74.175781 211.136719 74.097656 211.234375 74.027344 211.527344 C 73.980469 211.695312 73.960938 211.867188 73.964844 212.042969 C 73.972656 212.292969 73.976562 212.480469 74.074219 212.578125 C 74.347656 212.863281 75.289062 212.28125 75.667969 212.050781 C 76.046875 211.816406 76.375 211.554688 76.886719 211.15625 C 77.394531 210.753906 76.941406 211.128906 79.441406 209.234375 L 80.445312 208.464844 L 81.335938 208.464844 C 81.8125 208.234375 82.203125 208.011719 82.492188 207.832031 C 83.042969 207.5 83.449219 207.199219 83.769531 206.964844 C 84.09375 206.726562 84.222656 206.621094 84.367188 206.507812 C 84.433594 206.453125 84.507812 206.425781 84.59375 206.433594 C 84.660156 206.449219 84.714844 206.484375 84.757812 206.539062 C 84.832031 206.621094 84.878906 206.71875 84.898438 206.828125 C 84.882812 206.953125 84.867188 207.140625 84.84375 207.363281 C 84.707031 208.644531 84.652344 209.21875 84.585938 209.925781 C 84.464844 211.082031 84.472656 210.910156 84.335938 212.195312 C 84.214844 213.375 84.222656 213.40625 84.085938 214.773438 C 83.933594 216.253906 83.917969 216.277344 83.808594 217.433594 C 83.730469 218.242188 83.667969 218.917969 83.605469 219.824219 C 83.535156 220.851562 83.550781 220.914062 83.484375 221.835938 C 83.417969 222.761719 83.386719 222.925781 83.261719 224.3125 C 83.136719 225.589844 83.164062 225.464844 83.003906 227.300781 C 82.847656 229.136719 82.820312 229.210938 82.75 230.125 C 82.65625 231.359375 82.617188 232.324219 82.589844 232.890625 C 82.546875 233.832031 82.542969 234.148438 82.507812 235.390625 C 82.425781 237.824219 82.382812 239.046875 82.28125 240.195312 C 82.136719 241.894531 82.054688 242.738281 81.910156 243.195312 C 81.667969 243.988281 81.503906 244.796875 81.410156 245.617188 C 81.398438 245.742188 81.394531 245.863281 81.398438 245.988281 C 81.394531 246.285156 81.40625 246.367188 81.460938 246.433594 C 81.515625 246.5 81.558594 246.554688 81.683594 246.542969 C 81.8125 246.53125 81.890625 246.425781 81.929688 246.382812 C 81.964844 246.339844 82.011719 246.160156 82.054688 245.867188 C 82.121094 245.453125 82.175781 245.289062 82.195312 245.242188 C 82.257812 245.082031 82.328125 244.875 82.425781 244.875 C 82.523438 244.875 82.707031 245.375 82.710938 245.398438 C 82.71875 245.613281 82.726562 245.789062 82.738281 245.921875 C 82.746094 246.074219 82.761719 246.226562 82.792969 246.378906 C 82.828125 246.554688 82.878906 246.78125 82.945312 246.785156 C 83.011719 246.792969 83.035156 246.640625 83.164062 246.226562 C 83.289062 245.8125 83.339844 245.679688 83.40625 245.507812 C 83.546875 245.15625 83.605469 245.144531 83.746094 244.820312 C 83.886719 244.5 83.863281 244.4375 83.992188 243.992188 C 84.117188 243.550781 84.136719 243.589844 84.367188 242.875 C 84.597656 242.15625 84.585938 242.101562 84.738281 241.722656 C 84.851562 241.433594 84.988281 241.15625 85.152344 240.890625 C 85.425781 240.453125 85.570312 240.398438 85.960938 239.894531 C 86.214844 239.582031 86.4375 239.242188 86.617188 238.882812 C 86.734375 238.65625 86.78125 238.507812 87.054688 237.449219 C 87.300781 236.5 87.421875 236.011719 87.53125 235.511719 C 87.640625 235.015625 87.730469 234.527344 87.792969 234.199219 C 88 233.0625 88.003906 232.804688 88.164062 231.964844 C 88.277344 231.339844 88.386719 230.914062 88.558594 230.195312 C 88.664062 229.777344 88.839844 229.050781 89.253906 227.617188 C 89.667969 226.179688 89.746094 225.96875 90.238281 224.257812 C 90.585938 223.058594 90.753906 222.457031 90.859375 222.019531 C 91.199219 220.597656 91.121094 220.414062 91.472656 218.734375 C 91.648438 217.890625 91.8125 217.261719 92.117188 216.082031 C 92.300781 215.382812 92.304688 215.382812 92.738281 213.757812 C 93.25 211.824219 93.339844 211.453125 93.390625 211.234375 C 93.472656 210.855469 93.597656 210.261719 93.832031 209.070312 C 94.148438 207.511719 94.253906 206.945312 94.546875 206.117188 C 94.675781 205.738281 94.828125 205.363281 95 205 L 95.371094 205 C 95.457031 205.070312 95.546875 205.136719 95.640625 205.207031 L 96.351562 205.222656 L 96.492188 205.875 C 96.484375 206.039062 96.484375 206.210938 96.484375 206.375 C 96.570312 206.574219 96.695312 206.75 96.863281 206.890625 C 97.003906 207.011719 97.363281 207.273438 97.816406 207.285156 C 98 207.285156 98.140625 207.25 98.273438 207.351562 C 98.386719 207.429688 98.441406 207.539062 98.445312 207.675781 C 98.445312 207.753906 98.40625 207.785156 98.328125 207.941406 C 98.328125 207.941406 98.296875 208.003906 98.21875 208.230469 C 98.023438 208.765625 98.074219 209.773438 98.074219 209.773438 C 98.085938 210.003906 97.957031 210.601562 97.703125 211.789062 C 97.652344 212.007812 97.539062 212.535156 97.203125 213.894531 C 96.867188 215.25 96.722656 215.828125 96.503906 216.628906 C 96.449219 216.8125 96.21875 217.664062 95.863281 218.800781 C 95.589844 219.683594 95.542969 219.789062 95.007812 221.429688 C 94.617188 222.632812 94.421875 223.238281 94.234375 223.855469 C 93.980469 224.722656 93.808594 225.355469 93.535156 226.382812 C 93.171875 227.738281 92.988281 228.414062 92.8125 229.191406 C 92.59375 230.117188 92.320312 231.414062 92.070312 232.953125 C 91.835938 234.371094 91.726562 235.386719 91.699219 235.664062 C 91.644531 236.226562 91.601562 236.707031 91.578125 237.070312 C 91.453125 238.75 91.453125 240.433594 91.578125 242.113281 C 91.6875 243.589844 91.867188 244.730469 91.953125 245.226562 C 91.996094 245.496094 92.191406 246.609375 92.566406 248.0625 C 92.714844 248.621094 92.925781 249.457031 93.296875 250.527344 C 93.460938 251.007812 93.785156 251.902344 94.277344 252.996094 C 94.464844 253.417969 94.835938 254.214844 95.378906 255.191406 C 95.523438 255.453125 95.949219 256.222656 96.722656 257.402344 C 97.738281 258.957031 98.25 259.738281 99.054688 260.65625 C 100.480469 262.273438 101.539062 262.902344 101.871094 263.089844 C 102.226562 263.289062 102.597656 263.460938 102.976562 263.613281 C 103.6875 263.890625 104.421875 264.066406 105.179688 264.140625 L 124.28125 264.140625 Z M 124.28125 264.136719 " fill-opacity="1" fill-rule="nonzero"/></g><g clip-path="url(#4d0d8c431f)"><path fill="#f3f2f0" d="M 51.132812 123.894531 L 163.300781 51.328125 C 163.300781 51.328125 275.46875 123.894531 275.46875 123.894531 C 276.628906 124.644531 278.183594 124.3125 278.933594 123.152344 C 279.683594 121.992188 279.351562 120.4375 278.191406 119.6875 C 278.191406 119.6875 164.664062 46.242188 164.664062 46.242188 C 163.835938 45.707031 162.769531 45.707031 161.941406 46.242188 C 161.941406 46.242188 48.414062 119.6875 48.414062 119.6875 C 47.253906 120.4375 46.917969 121.992188 47.671875 123.152344 C 48.421875 124.3125 49.972656 124.644531 51.132812 123.894531 Z M 51.132812 123.894531 " fill-opacity="1" fill-rule="evenodd"/></g><path fill="#f3f2f0" d="M 191.03125 66.167969 L 211.664062 52.816406 C 211.664062 52.816406 317.710938 122.386719 317.710938 122.386719 C 318.867188 123.148438 320.421875 122.824219 321.183594 121.667969 C 321.9375 120.511719 321.617188 118.957031 320.460938 118.199219 C 320.460938 118.199219 213.050781 47.734375 213.050781 47.734375 C 212.21875 47.1875 211.148438 47.1875 210.3125 47.722656 C 210.3125 47.722656 201.179688 53.632812 188.3125 61.960938 C 187.148438 62.710938 186.816406 64.261719 187.570312 65.425781 C 188.320312 66.585938 189.871094 66.917969 191.03125 66.167969 Z M 191.03125 66.167969 " fill-opacity="1" fill-rule="evenodd"/><path fill="#f3f2f0" d="M 112.0625 82.230469 L 112.0625 63.304688 C 112.0625 61.929688 110.941406 60.8125 109.5625 60.8125 L 88.691406 60.8125 C 87.304688 60.8125 86.195312 61.929688 86.195312 63.304688 L 86.195312 96.613281 C 86.195312 97.988281 87.304688 99.109375 88.691406 99.109375 C 90.066406 99.109375 91.1875 97.988281 91.1875 96.613281 L 91.1875 65.800781 C 91.1875 65.800781 107.066406 65.800781 107.066406 65.800781 L 107.066406 82.230469 C 107.066406 83.605469 108.1875 84.722656 109.5625 84.722656 C 110.941406 84.722656 112.0625 83.605469 112.0625 82.230469 Z M 112.0625 82.230469 " fill-opacity="1" fill-rule="evenodd"/><g clip-path="url(#2874344d83)"><path fill="#f3f2f0" d="M 101.144531 29.070312 C 108.269531 11.835938 136.066406 29.070312 101.144531 51.230469 C 66.222656 29.070312 94.015625 11.835938 101.144531 29.070312 " fill-opacity="1" fill-rule="evenodd"/></g><g clip-path="url(#de283860b8)"><path fill="#ffffff" d="M 128.980469 255.914062 C 129.175781 256.691406 128.71875 257.164062 128.496094 257.71875 C 128.296875 257.683594 128.410156 257.496094 128.265625 257.414062 C 127.777344 259.167969 126.773438 260.621094 125.476562 262.054688 C 129.03125 261.855469 132.226562 262.503906 135 264.652344 C 131.882812 263.597656 128.699219 263.359375 125.371094 263.703125 C 125.539062 263.902344 125.675781 264.03125 125.769531 264.179688 C 126.03125 264.621094 125.839844 264.957031 125.332031 264.953125 C 125.136719 264.953125 124.953125 264.972656 124.78125 265.066406 C 124.480469 265.234375 124.167969 265.25 123.847656 265.132812 C 123.722656 265.085938 123.59375 265.035156 123.464844 265.078125 C 122.855469 265.273438 122.367188 265.035156 121.9375 264.644531 C 121.675781 264.410156 121.449219 264.382812 121.117188 264.515625 C 118.941406 265.378906 116.742188 265.546875 114.519531 264.6875 C 114.242188 264.582031 113.960938 264.511719 113.660156 264.539062 C 112.820312 264.609375 112.148438 264.253906 111.582031 263.675781 C 110.285156 262.367188 109.605469 260.742188 109.292969 258.964844 C 108.605469 255.011719 109.660156 251.515625 112.207031 248.445312 C 112.714844 247.835938 113.269531 247.273438 113.839844 246.726562 C 114.179688 246.402344 114.246094 245.832031 114.933594 245.71875 C 114.609375 245.613281 114.453125 245.804688 114.277344 245.734375 C 114.273438 245.710938 114.257812 245.667969 114.269531 245.664062 C 115.019531 245.265625 115.410156 244.53125 115.921875 243.910156 C 116.054688 243.753906 115.777344 243.46875 116.144531 243.398438 C 116.382812 243.355469 116.59375 243.1875 116.8125 243.074219 C 117.050781 242.953125 117.285156 242.839844 117.519531 242.710938 C 118.019531 242.441406 118.015625 242.4375 117.621094 242.035156 C 116.8125 241.21875 116.726562 240.113281 117.394531 239.101562 C 117.988281 238.207031 119.09375 237.863281 120.109375 238.253906 C 120.566406 238.429688 120.953125 238.71875 121.3125 239.042969 C 121.464844 239.179688 121.609375 239.242188 121.828125 239.191406 C 122.753906 238.976562 123.6875 238.980469 124.613281 239.175781 C 124.886719 239.234375 125.03125 239.171875 125.175781 238.925781 C 125.570312 238.25 126.171875 237.886719 126.964844 237.96875 C 128.191406 238.089844 128.8125 239.144531 128.375 240.300781 C 128.328125 240.425781 128.296875 240.566406 128.21875 240.664062 C 127.742188 241.257812 127.898438 241.824219 128.207031 242.4375 C 128.480469 242.984375 128.664062 243.578125 128.894531 244.148438 C 128.953125 244.296875 129.019531 244.445312 129.101562 244.582031 C 129.554688 245.300781 129.558594 245.300781 130.359375 245.058594 C 131.761719 244.640625 133.167969 244.496094 134.171875 244.695312 C 133.414062 244.75 132.660156 244.804688 131.917969 244.980469 C 131.1875 245.15625 130.480469 245.402344 129.800781 245.777344 C 130.6875 245.761719 131.558594 245.609375 132.4375 245.703125 C 133.308594 245.796875 134.160156 245.960938 134.941406 246.402344 C 133.421875 245.972656 131.886719 246.039062 130.34375 246.242188 C 131 246.335938 131.644531 246.457031 132.285156 246.632812 C 132.929688 246.808594 133.558594 247.019531 134.105469 247.4375 C 133.015625 247.105469 131.894531 246.988281 130.773438 246.871094 C 132.640625 247.367188 134.441406 248.027344 136.089844 249.0625 C 134.144531 248.277344 132.097656 247.855469 130.085938 247.300781 C 130.800781 247.691406 131.535156 248.042969 132.222656 248.484375 C 132.917969 248.925781 133.609375 249.375 134.167969 250 C 132.851562 249.191406 131.511719 248.441406 130.046875 247.902344 C 131.109375 248.742188 132.15625 249.582031 133.066406 250.71875 C 132.808594 250.660156 132.71875 250.519531 132.613281 250.417969 C 131.90625 249.730469 131.132812 249.128906 130.320312 248.578125 C 130.070312 248.40625 129.949219 248.429688 129.96875 248.746094 C 129.996094 249.238281 129.714844 249.644531 129.53125 250.050781 C 129.410156 250.316406 129.429688 250.671875 129.339844 250.78125 C 128.9375 251.257812 129.542969 251.511719 129.484375 251.855469 C 129.425781 252.191406 129.554688 252.546875 129.476562 252.820312 C 129.328125 253.34375 129.597656 253.789062 129.566406 254.269531 C 129.558594 254.382812 129.789062 254.664062 129.394531 254.574219 C 129.390625 254.671875 129.367188 254.773438 129.386719 254.867188 C 129.464844 255.25 129.390625 255.625 129.351562 256.003906 C 129.339844 256.089844 129.324219 256.210938 129.238281 256.222656 C 129.101562 256.234375 129.125 256.070312 128.980469 255.914062 Z M 124.878906 248.9375 C 125.351562 249.070312 125.828125 249.113281 126.257812 248.816406 C 126.441406 248.6875 126.59375 248.703125 126.78125 248.792969 C 127.066406 248.925781 127.367188 248.996094 127.730469 248.824219 C 127.101562 248.75 126.84375 248.5625 126.808594 248.070312 C 126.765625 247.476562 126.699219 246.855469 127.300781 246.441406 C 127.453125 246.339844 127.539062 246.171875 127.472656 245.980469 C 127.40625 245.78125 127.230469 245.730469 127.050781 245.726562 C 126.847656 245.722656 126.636719 245.722656 126.441406 245.761719 C 126.246094 245.796875 126.003906 245.796875 125.953125 246.058594 C 125.90625 246.292969 126.082031 246.429688 126.238281 246.5625 C 126.378906 246.6875 126.570312 246.746094 126.625 246.960938 C 126.773438 247.523438 126.433594 248.410156 125.941406 248.710938 C 125.613281 248.914062 125.238281 248.871094 124.878906 248.9375 Z M 121.273438 247.359375 C 120.152344 247.542969 117.945312 248.480469 117.550781 248.894531 C 118.792969 248.382812 120.035156 247.871094 121.273438 247.359375 Z M 121.273438 247.359375 " fill-opacity="1" fill-rule="nonzero"/></g><g fill="#f3f2f0" fill-opacity="1"><g transform="translate(62.312036, 319.196609)"><g><path d="M 18.984375 -21.125 C 20.796875 -21.125 22.191406 -21.546875 23.171875 -22.390625 C 24.148438 -23.234375 24.640625 -24.523438 24.640625 -26.265625 C 24.640625 -27.910156 24.128906 -29.175781 23.109375 -30.0625 C 22.085938 -30.945312 20.601562 -31.390625 18.65625 -31.390625 C 17.957031 -31.390625 17.378906 -31.378906 16.921875 -31.359375 C 16.472656 -31.335938 16.007812 -31.285156 15.53125 -31.203125 L 15.53125 -21.125 Z M 15.59375 -0.265625 C 15.125 -0.128906 14.378906 0 13.359375 0.125 C 12.335938 0.257812 11.328125 0.328125 10.328125 0.328125 C 9.335938 0.328125 8.460938 0.25 7.703125 0.09375 C 6.941406 -0.0507812 6.300781 -0.316406 5.78125 -0.703125 C 5.257812 -1.097656 4.867188 -1.640625 4.609375 -2.328125 C 4.347656 -3.023438 4.21875 -3.9375 4.21875 -5.0625 L 4.21875 -35.6875 C 4.21875 -36.59375 4.46875 -37.296875 4.96875 -37.796875 C 5.46875 -38.296875 6.148438 -38.695312 7.015625 -39 C 8.492188 -39.519531 10.175781 -39.898438 12.0625 -40.140625 C 13.945312 -40.378906 15.84375 -40.5 17.75 -40.5 C 23.726562 -40.5 28.296875 -39.21875 31.453125 -36.65625 C 34.617188 -34.101562 36.203125 -30.640625 36.203125 -26.265625 C 36.203125 -24.140625 35.863281 -22.21875 35.1875 -20.5 C 34.519531 -18.789062 33.523438 -17.316406 32.203125 -16.078125 C 30.878906 -14.847656 29.210938 -13.894531 27.203125 -13.21875 C 25.191406 -12.550781 22.863281 -12.21875 20.21875 -12.21875 L 15.59375 -12.21875 Z M 15.59375 -0.265625 "/></g></g></g><g fill="#f3f2f0" fill-opacity="1"><g transform="translate(100.072536, 319.196609)"><g><path d="M 20.078125 1.046875 C 17.523438 1.046875 15.15625 0.6875 12.96875 -0.03125 C 10.78125 -0.75 8.875 -1.820312 7.25 -3.25 C 5.625 -4.675781 4.34375 -6.472656 3.40625 -8.640625 C 2.476562 -10.804688 2.015625 -13.34375 2.015625 -16.25 C 2.015625 -19.113281 2.476562 -21.570312 3.40625 -23.625 C 4.34375 -25.6875 5.566406 -27.378906 7.078125 -28.703125 C 8.597656 -30.023438 10.332031 -31 12.28125 -31.625 C 14.226562 -32.25 16.222656 -32.5625 18.265625 -32.5625 C 20.554688 -32.5625 22.644531 -32.210938 24.53125 -31.515625 C 26.414062 -30.828125 28.039062 -29.875 29.40625 -28.65625 C 30.769531 -27.445312 31.832031 -26 32.59375 -24.3125 C 33.351562 -22.625 33.734375 -20.78125 33.734375 -18.78125 C 33.734375 -17.3125 33.320312 -16.1875 32.5 -15.40625 C 31.675781 -14.625 30.53125 -14.125 29.0625 -13.90625 L 13 -11.5 C 13.476562 -10.070312 14.453125 -9 15.921875 -8.28125 C 17.398438 -7.570312 19.09375 -7.21875 21 -7.21875 C 22.769531 -7.21875 24.445312 -7.441406 26.03125 -7.890625 C 27.613281 -8.347656 28.90625 -8.878906 29.90625 -9.484375 C 30.59375 -9.054688 31.175781 -8.453125 31.65625 -7.671875 C 32.132812 -6.890625 32.375 -6.066406 32.375 -5.203125 C 32.375 -3.253906 31.460938 -1.800781 29.640625 -0.84375 C 28.253906 -0.101562 26.691406 0.394531 24.953125 0.65625 C 23.222656 0.914062 21.597656 1.046875 20.078125 1.046875 Z M 18.265625 -24.5 C 17.222656 -24.5 16.320312 -24.328125 15.5625 -23.984375 C 14.8125 -23.640625 14.195312 -23.195312 13.71875 -22.65625 C 13.238281 -22.113281 12.878906 -21.503906 12.640625 -20.828125 C 12.398438 -20.160156 12.257812 -19.476562 12.21875 -18.78125 L 23.328125 -20.609375 C 23.203125 -21.472656 22.726562 -22.335938 21.90625 -23.203125 C 21.082031 -24.066406 19.867188 -24.5 18.265625 -24.5 Z M 18.265625 -24.5 "/></g></g></g><g fill="#f3f2f0" fill-opacity="1"><g transform="translate(135.753278, 319.196609)"><g><path d="M 14.4375 -10.859375 C 14.4375 -9.734375 14.789062 -8.929688 15.5 -8.453125 C 16.21875 -7.972656 17.226562 -7.734375 18.53125 -7.734375 C 19.175781 -7.734375 19.84375 -7.785156 20.53125 -7.890625 C 21.226562 -8.003906 21.835938 -8.144531 22.359375 -8.3125 C 22.742188 -7.84375 23.078125 -7.3125 23.359375 -6.71875 C 23.648438 -6.132812 23.796875 -5.429688 23.796875 -4.609375 C 23.796875 -2.960938 23.175781 -1.617188 21.9375 -0.578125 C 20.695312 0.453125 18.519531 0.96875 15.40625 0.96875 C 11.59375 0.96875 8.65625 0.101562 6.59375 -1.625 C 4.539062 -3.351562 3.515625 -6.171875 3.515625 -10.078125 L 3.515625 -37.890625 C 3.984375 -38.023438 4.660156 -38.164062 5.546875 -38.3125 C 6.441406 -38.46875 7.390625 -38.546875 8.390625 -38.546875 C 10.296875 -38.546875 11.78125 -38.207031 12.84375 -37.53125 C 13.90625 -36.863281 14.4375 -35.445312 14.4375 -33.28125 L 14.4375 -29.125 L 22.9375 -29.125 C 23.195312 -28.644531 23.445312 -28.046875 23.6875 -27.328125 C 23.925781 -26.617188 24.046875 -25.828125 24.046875 -24.953125 C 24.046875 -23.441406 23.707031 -22.347656 23.03125 -21.671875 C 22.363281 -21.003906 21.46875 -20.671875 20.34375 -20.671875 L 14.4375 -20.671875 Z M 14.4375 -10.859375 "/></g></g></g><g fill="#f3f2f0" fill-opacity="1"><g transform="translate(161.750179, 319.196609)"><g/></g></g><g fill="#f3f2f0" fill-opacity="1"><g transform="translate(174.748629, 319.196609)"><g><path d="M 15.40625 -15.671875 C 13.5 -16.316406 11.765625 -16.972656 10.203125 -17.640625 C 8.640625 -18.316406 7.296875 -19.128906 6.171875 -20.078125 C 5.046875 -21.035156 4.164062 -22.175781 3.53125 -23.5 C 2.90625 -24.820312 2.59375 -26.4375 2.59375 -28.34375 C 2.59375 -32.019531 4.007812 -34.960938 6.84375 -37.171875 C 9.6875 -39.390625 13.664062 -40.5 18.78125 -40.5 C 20.644531 -40.5 22.378906 -40.367188 23.984375 -40.109375 C 25.585938 -39.847656 26.960938 -39.445312 28.109375 -38.90625 C 29.253906 -38.363281 30.148438 -37.671875 30.796875 -36.828125 C 31.453125 -35.984375 31.78125 -34.992188 31.78125 -33.859375 C 31.78125 -32.734375 31.519531 -31.769531 31 -30.96875 C 30.476562 -30.164062 29.851562 -29.484375 29.125 -28.921875 C 28.164062 -29.523438 26.882812 -30.054688 25.28125 -30.515625 C 23.675781 -30.972656 21.921875 -31.203125 20.015625 -31.203125 C 18.066406 -31.203125 16.632812 -30.929688 15.71875 -30.390625 C 14.8125 -29.847656 14.359375 -29.164062 14.359375 -28.34375 C 14.359375 -27.6875 14.640625 -27.148438 15.203125 -26.734375 C 15.773438 -26.328125 16.625 -25.953125 17.75 -25.609375 L 21.1875 -24.5 C 25.257812 -23.207031 28.390625 -21.550781 30.578125 -19.53125 C 32.765625 -17.519531 33.859375 -14.78125 33.859375 -11.3125 C 33.859375 -7.625 32.40625 -4.640625 29.5 -2.359375 C 26.601562 -0.0859375 22.335938 1.046875 16.703125 1.046875 C 14.710938 1.046875 12.859375 0.878906 11.140625 0.546875 C 9.429688 0.222656 7.9375 -0.25 6.65625 -0.875 C 5.382812 -1.5 4.390625 -2.273438 3.671875 -3.203125 C 2.953125 -4.140625 2.59375 -5.21875 2.59375 -6.4375 C 2.59375 -7.6875 2.960938 -8.753906 3.703125 -9.640625 C 4.441406 -10.535156 5.242188 -11.222656 6.109375 -11.703125 C 7.328125 -10.742188 8.8125 -9.914062 10.5625 -9.21875 C 12.3125 -8.53125 14.226562 -8.1875 16.3125 -8.1875 C 18.4375 -8.1875 19.929688 -8.507812 20.796875 -9.15625 C 21.660156 -9.8125 22.09375 -10.570312 22.09375 -11.4375 C 22.09375 -12.300781 21.742188 -12.960938 21.046875 -13.421875 C 20.359375 -13.878906 19.390625 -14.320312 18.140625 -14.75 Z M 15.40625 -15.671875 "/></g></g></g><g fill="#f3f2f0" fill-opacity="1"><g transform="translate(210.559353, 319.196609)"><g><path d="M 17.875 -32.5625 C 20.476562 -32.5625 22.894531 -32.222656 25.125 -31.546875 C 27.351562 -30.878906 29.269531 -29.851562 30.875 -28.46875 C 32.476562 -27.082031 33.734375 -25.335938 34.640625 -23.234375 C 35.554688 -21.128906 36.015625 -18.628906 36.015625 -15.734375 C 36.015625 -12.953125 35.625 -10.519531 34.84375 -8.4375 C 34.0625 -6.363281 32.953125 -4.625 31.515625 -3.21875 C 30.085938 -1.8125 28.363281 -0.757812 26.34375 -0.0625 C 24.332031 0.625 22.09375 0.96875 19.625 0.96875 C 17.757812 0.96875 16.03125 0.6875 14.4375 0.125 L 14.4375 10.921875 C 14 11.046875 13.300781 11.179688 12.34375 11.328125 C 11.394531 11.484375 10.421875 11.5625 9.421875 11.5625 C 8.472656 11.5625 7.617188 11.5 6.859375 11.375 C 6.097656 11.25 5.457031 10.988281 4.9375 10.59375 C 4.414062 10.207031 4.023438 9.675781 3.765625 9 C 3.503906 8.332031 3.375 7.457031 3.375 6.375 L 3.375 -24.828125 C 3.375 -25.992188 3.625 -26.945312 4.125 -27.6875 C 4.625 -28.425781 5.304688 -29.097656 6.171875 -29.703125 C 7.515625 -30.566406 9.179688 -31.257812 11.171875 -31.78125 C 13.171875 -32.300781 15.40625 -32.5625 17.875 -32.5625 Z M 18 -7.734375 C 22.46875 -7.734375 24.703125 -10.398438 24.703125 -15.734375 C 24.703125 -18.503906 24.148438 -20.5625 23.046875 -21.90625 C 21.941406 -23.25 20.347656 -23.921875 18.265625 -23.921875 C 17.441406 -23.921875 16.703125 -23.820312 16.046875 -23.625 C 15.398438 -23.425781 14.835938 -23.195312 14.359375 -22.9375 L 14.359375 -8.640625 C 14.878906 -8.378906 15.441406 -8.160156 16.046875 -7.984375 C 16.660156 -7.816406 17.3125 -7.734375 18 -7.734375 Z M 18 -7.734375 "/></g></g></g><g fill="#f3f2f0" fill-opacity="1"><g transform="translate(248.579816, 319.196609)"><g><path d="M 36.078125 -15.796875 C 36.078125 -13.109375 35.664062 -10.710938 34.84375 -8.609375 C 34.019531 -6.503906 32.859375 -4.738281 31.359375 -3.3125 C 29.867188 -1.882812 28.082031 -0.800781 26 -0.0625 C 23.914062 0.675781 21.597656 1.046875 19.046875 1.046875 C 16.484375 1.046875 14.160156 0.65625 12.078125 -0.125 C 10.003906 -0.90625 8.21875 -2.019531 6.71875 -3.46875 C 5.226562 -4.925781 4.070312 -6.691406 3.25 -8.765625 C 2.425781 -10.847656 2.015625 -13.191406 2.015625 -15.796875 C 2.015625 -18.347656 2.425781 -20.664062 3.25 -22.75 C 4.070312 -24.832031 5.226562 -26.597656 6.71875 -28.046875 C 8.21875 -29.492188 10.003906 -30.609375 12.078125 -31.390625 C 14.160156 -32.171875 16.484375 -32.5625 19.046875 -32.5625 C 21.597656 -32.5625 23.914062 -32.160156 26 -31.359375 C 28.082031 -30.554688 29.867188 -29.429688 31.359375 -27.984375 C 32.859375 -26.535156 34.019531 -24.769531 34.84375 -22.6875 C 35.664062 -20.601562 36.078125 -18.304688 36.078125 -15.796875 Z M 13.328125 -15.796875 C 13.328125 -13.148438 13.832031 -11.125 14.84375 -9.71875 C 15.863281 -8.3125 17.285156 -7.609375 19.109375 -7.609375 C 20.929688 -7.609375 22.328125 -8.320312 23.296875 -9.75 C 24.273438 -11.175781 24.765625 -13.191406 24.765625 -15.796875 C 24.765625 -18.390625 24.265625 -20.390625 23.265625 -21.796875 C 22.273438 -23.210938 20.867188 -23.921875 19.046875 -23.921875 C 17.222656 -23.921875 15.8125 -23.210938 14.8125 -21.796875 C 13.820312 -20.390625 13.328125 -18.390625 13.328125 -15.796875 Z M 13.328125 -15.796875 "/></g></g></g><g fill="#f3f2f0" fill-opacity="1"><g transform="translate(286.66527, 319.196609)"><g><path d="M 14.4375 -10.859375 C 14.4375 -9.734375 14.789062 -8.929688 15.5 -8.453125 C 16.21875 -7.972656 17.226562 -7.734375 18.53125 -7.734375 C 19.175781 -7.734375 19.84375 -7.785156 20.53125 -7.890625 C 21.226562 -8.003906 21.835938 -8.144531 22.359375 -8.3125 C 22.742188 -7.84375 23.078125 -7.3125 23.359375 -6.71875 C 23.648438 -6.132812 23.796875 -5.429688 23.796875 -4.609375 C 23.796875 -2.960938 23.175781 -1.617188 21.9375 -0.578125 C 20.695312 0.453125 18.519531 0.96875 15.40625 0.96875 C 11.59375 0.96875 8.65625 0.101562 6.59375 -1.625 C 4.539062 -3.351562 3.515625 -6.171875 3.515625 -10.078125 L 3.515625 -37.890625 C 3.984375 -38.023438 4.660156 -38.164062 5.546875 -38.3125 C 6.441406 -38.46875 7.390625 -38.546875 8.390625 -38.546875 C 10.296875 -38.546875 11.78125 -38.207031 12.84375 -37.53125 C 13.90625 -36.863281 14.4375 -35.445312 14.4375 -33.28125 L 14.4375 -29.125 L 22.9375 -29.125 C 23.195312 -28.644531 23.445312 -28.046875 23.6875 -27.328125 C 23.925781 -26.617188 24.046875 -25.828125 24.046875 -24.953125 C 24.046875 -23.441406 23.707031 -22.347656 23.03125 -21.671875 C 22.363281 -21.003906 21.46875 -20.671875 20.34375 -20.671875 L 14.4375 -20.671875 Z M 14.4375 -10.859375 "/></g></g></g><g fill="#f3f2f0" fill-opacity="1"><g transform="translate(66.398203, 356.499997)"><g><path d="M 11.015625 -3.5 L 3.578125 -3.5 L 2.046875 0 L -0.015625 0 L 6.3125 -14 L 8.296875 -14 L 14.65625 0 L 12.5625 0 Z M 10.3125 -5.09375 L 7.296875 -11.953125 L 4.28125 -5.09375 Z M 10.3125 -5.09375 "/></g></g></g><g fill="#f3f2f0" fill-opacity="1"><g transform="translate(81.512427, 356.499997)"><g><path d="M 2.09375 -14 L 8 -14 C 9.476562 -14 10.789062 -13.703125 11.9375 -13.109375 C 13.082031 -12.523438 13.972656 -11.703125 14.609375 -10.640625 C 15.242188 -9.585938 15.5625 -8.375 15.5625 -7 C 15.5625 -5.625 15.242188 -4.40625 14.609375 -3.34375 C 13.972656 -2.289062 13.082031 -1.46875 11.9375 -0.875 C 10.789062 -0.289062 9.476562 0 8 0 L 2.09375 0 Z M 7.875 -1.734375 C 9.007812 -1.734375 10.003906 -1.953125 10.859375 -2.390625 C 11.722656 -2.835938 12.390625 -3.457031 12.859375 -4.25 C 13.328125 -5.039062 13.5625 -5.957031 13.5625 -7 C 13.5625 -8.039062 13.328125 -8.957031 12.859375 -9.75 C 12.390625 -10.539062 11.722656 -11.15625 10.859375 -11.59375 C 10.003906 -12.039062 9.007812 -12.265625 7.875 -12.265625 L 4.09375 -12.265625 L 4.09375 -1.734375 Z M 7.875 -1.734375 "/></g></g></g><g fill="#f3f2f0" fill-opacity="1"><g transform="translate(98.505908, 356.499997)"><g><path d="M 8.421875 0.15625 C 7.003906 0.15625 5.726562 -0.148438 4.59375 -0.765625 C 3.46875 -1.390625 2.578125 -2.25 1.921875 -3.34375 C 1.273438 -4.4375 0.953125 -5.65625 0.953125 -7 C 0.953125 -8.34375 1.273438 -9.5625 1.921875 -10.65625 C 2.578125 -11.75 3.46875 -12.601562 4.59375 -13.21875 C 5.726562 -13.84375 7.003906 -14.15625 8.421875 -14.15625 C 9.816406 -14.15625 11.082031 -13.84375 12.21875 -13.21875 C 13.351562 -12.601562 14.238281 -11.753906 14.875 -10.671875 C 15.519531 -9.585938 15.84375 -8.363281 15.84375 -7 C 15.84375 -5.632812 15.519531 -4.410156 14.875 -3.328125 C 14.238281 -2.242188 13.351562 -1.390625 12.21875 -0.765625 C 11.082031 -0.148438 9.816406 0.15625 8.421875 0.15625 Z M 8.421875 -1.625 C 9.441406 -1.625 10.363281 -1.851562 11.1875 -2.3125 C 12.007812 -2.78125 12.65625 -3.425781 13.125 -4.25 C 13.601562 -5.070312 13.84375 -5.988281 13.84375 -7 C 13.84375 -8.007812 13.601562 -8.925781 13.125 -9.75 C 12.65625 -10.570312 12.007812 -11.210938 11.1875 -11.671875 C 10.363281 -12.140625 9.441406 -12.375 8.421875 -12.375 C 7.390625 -12.375 6.457031 -12.140625 5.625 -11.671875 C 4.789062 -11.210938 4.132812 -10.570312 3.65625 -9.75 C 3.1875 -8.925781 2.953125 -8.007812 2.953125 -7 C 2.953125 -5.988281 3.1875 -5.070312 3.65625 -4.25 C 4.132812 -3.425781 4.789062 -2.78125 5.625 -2.3125 C 6.457031 -1.851562 7.390625 -1.625 8.421875 -1.625 Z M 8.421875 -1.625 "/></g></g></g><g fill="#f3f2f0" fill-opacity="1"><g transform="translate(115.77929, 356.499997)"><g><path d="M 8.359375 0.15625 C 6.960938 0.15625 5.695312 -0.148438 4.5625 -0.765625 C 3.4375 -1.390625 2.550781 -2.242188 1.90625 -3.328125 C 1.269531 -4.410156 0.953125 -5.632812 0.953125 -7 C 0.953125 -8.363281 1.269531 -9.585938 1.90625 -10.671875 C 2.550781 -11.753906 3.441406 -12.601562 4.578125 -13.21875 C 5.710938 -13.84375 6.976562 -14.15625 8.375 -14.15625 C 9.46875 -14.15625 10.46875 -13.972656 11.375 -13.609375 C 12.28125 -13.242188 13.054688 -12.703125 13.703125 -11.984375 L 12.40625 -10.71875 C 11.34375 -11.820312 10.023438 -12.375 8.453125 -12.375 C 7.421875 -12.375 6.484375 -12.140625 5.640625 -11.671875 C 4.796875 -11.210938 4.132812 -10.570312 3.65625 -9.75 C 3.1875 -8.925781 2.953125 -8.007812 2.953125 -7 C 2.953125 -5.988281 3.1875 -5.070312 3.65625 -4.25 C 4.132812 -3.425781 4.796875 -2.78125 5.640625 -2.3125 C 6.484375 -1.851562 7.421875 -1.625 8.453125 -1.625 C 10.015625 -1.625 11.332031 -2.179688 12.40625 -3.296875 L 13.703125 -2.046875 C 13.054688 -1.316406 12.273438 -0.765625 11.359375 -0.390625 C 10.453125 -0.0234375 9.453125 0.15625 8.359375 0.15625 Z M 7.546875 4.484375 C 6.847656 4.484375 6.253906 4.335938 5.765625 4.046875 L 6.1875 3.0625 C 6.582031 3.289062 7.035156 3.40625 7.546875 3.40625 C 8.296875 3.40625 8.671875 3.132812 8.671875 2.59375 C 8.671875 2.351562 8.578125 2.160156 8.390625 2.015625 C 8.203125 1.878906 7.914062 1.8125 7.53125 1.8125 L 6.984375 1.8125 L 7.484375 -0.140625 L 8.59375 -0.140625 L 8.28125 1 C 8.84375 1.050781 9.273438 1.226562 9.578125 1.53125 C 9.878906 1.832031 10.03125 2.207031 10.03125 2.65625 C 10.03125 3.21875 9.800781 3.660156 9.34375 3.984375 C 8.894531 4.316406 8.296875 4.484375 7.546875 4.484375 Z M 7.546875 4.484375 "/></g></g></g><g fill="#f3f2f0" fill-opacity="1"><g transform="translate(130.713588, 356.499997)"><g><path d="M 11.015625 -3.5 L 3.578125 -3.5 L 2.046875 0 L -0.015625 0 L 6.3125 -14 L 8.296875 -14 L 14.65625 0 L 12.5625 0 Z M 10.3125 -5.09375 L 7.296875 -11.953125 L 4.28125 -5.09375 Z M 8.71875 -15.203125 C 8.394531 -15.203125 8.113281 -15.265625 7.875 -15.390625 C 7.644531 -15.523438 7.359375 -15.726562 7.015625 -16 C 6.816406 -16.1875 6.640625 -16.320312 6.484375 -16.40625 C 6.335938 -16.5 6.191406 -16.546875 6.046875 -16.546875 C 5.753906 -16.546875 5.515625 -16.429688 5.328125 -16.203125 C 5.140625 -15.984375 5.039062 -15.679688 5.03125 -15.296875 L 3.953125 -15.296875 C 3.984375 -16.046875 4.171875 -16.640625 4.515625 -17.078125 C 4.867188 -17.515625 5.332031 -17.734375 5.90625 -17.734375 C 6.226562 -17.734375 6.507812 -17.660156 6.75 -17.515625 C 7 -17.378906 7.285156 -17.179688 7.609375 -16.921875 C 7.835938 -16.734375 8.019531 -16.59375 8.15625 -16.5 C 8.289062 -16.414062 8.429688 -16.375 8.578125 -16.375 C 8.867188 -16.375 9.109375 -16.476562 9.296875 -16.6875 C 9.484375 -16.90625 9.582031 -17.203125 9.59375 -17.578125 L 10.671875 -17.578125 C 10.640625 -16.859375 10.445312 -16.28125 10.09375 -15.84375 C 9.75 -15.414062 9.289062 -15.203125 8.71875 -15.203125 Z M 8.71875 -15.203125 "/></g></g></g><g fill="#f3f2f0" fill-opacity="1"><g transform="translate(145.827811, 356.499997)"><g><path d="M 8.421875 0.15625 C 7.003906 0.15625 5.726562 -0.148438 4.59375 -0.765625 C 3.46875 -1.390625 2.578125 -2.25 1.921875 -3.34375 C 1.273438 -4.4375 0.953125 -5.65625 0.953125 -7 C 0.953125 -8.34375 1.273438 -9.5625 1.921875 -10.65625 C 2.578125 -11.75 3.46875 -12.601562 4.59375 -13.21875 C 5.726562 -13.84375 7.003906 -14.15625 8.421875 -14.15625 C 9.816406 -14.15625 11.082031 -13.84375 12.21875 -13.21875 C 13.351562 -12.601562 14.238281 -11.753906 14.875 -10.671875 C 15.519531 -9.585938 15.84375 -8.363281 15.84375 -7 C 15.84375 -5.632812 15.519531 -4.410156 14.875 -3.328125 C 14.238281 -2.242188 13.351562 -1.390625 12.21875 -0.765625 C 11.082031 -0.148438 9.816406 0.15625 8.421875 0.15625 Z M 8.421875 -1.625 C 9.441406 -1.625 10.363281 -1.851562 11.1875 -2.3125 C 12.007812 -2.78125 12.65625 -3.425781 13.125 -4.25 C 13.601562 -5.070312 13.84375 -5.988281 13.84375 -7 C 13.84375 -8.007812 13.601562 -8.925781 13.125 -9.75 C 12.65625 -10.570312 12.007812 -11.210938 11.1875 -11.671875 C 10.363281 -12.140625 9.441406 -12.375 8.421875 -12.375 C 7.390625 -12.375 6.457031 -12.140625 5.625 -11.671875 C 4.789062 -11.210938 4.132812 -10.570312 3.65625 -9.75 C 3.1875 -8.925781 2.953125 -8.007812 2.953125 -7 C 2.953125 -5.988281 3.1875 -5.070312 3.65625 -4.25 C 4.132812 -3.425781 4.789062 -2.78125 5.625 -2.3125 C 6.457031 -1.851562 7.390625 -1.625 8.421875 -1.625 Z M 8.421875 -1.625 "/></g></g></g><g fill="#f3f2f0" fill-opacity="1"><g transform="translate(163.101196, 356.499997)"><g/></g></g><g fill="#f3f2f0" fill-opacity="1"><g transform="translate(168.959071, 356.499997)"><g><path d="M 8.359375 0.15625 C 6.960938 0.15625 5.695312 -0.148438 4.5625 -0.765625 C 3.4375 -1.390625 2.550781 -2.242188 1.90625 -3.328125 C 1.269531 -4.410156 0.953125 -5.632812 0.953125 -7 C 0.953125 -8.363281 1.269531 -9.585938 1.90625 -10.671875 C 2.550781 -11.753906 3.441406 -12.601562 4.578125 -13.21875 C 5.710938 -13.84375 6.976562 -14.15625 8.375 -14.15625 C 9.46875 -14.15625 10.46875 -13.972656 11.375 -13.609375 C 12.28125 -13.242188 13.054688 -12.703125 13.703125 -11.984375 L 12.40625 -10.71875 C 11.34375 -11.820312 10.023438 -12.375 8.453125 -12.375 C 7.421875 -12.375 6.484375 -12.140625 5.640625 -11.671875 C 4.796875 -11.210938 4.132812 -10.570312 3.65625 -9.75 C 3.1875 -8.925781 2.953125 -8.007812 2.953125 -7 C 2.953125 -5.988281 3.1875 -5.070312 3.65625 -4.25 C 4.132812 -3.425781 4.796875 -2.78125 5.640625 -2.3125 C 6.484375 -1.851562 7.421875 -1.625 8.453125 -1.625 C 10.015625 -1.625 11.332031 -2.179688 12.40625 -3.296875 L 13.703125 -2.046875 C 13.054688 -1.316406 12.273438 -0.765625 11.359375 -0.390625 C 10.453125 -0.0234375 9.453125 0.15625 8.359375 0.15625 Z M 8.359375 0.15625 "/></g></g></g><g fill="#f3f2f0" fill-opacity="1"><g transform="translate(183.893369, 356.499997)"><g><path d="M 8.421875 0.15625 C 7.003906 0.15625 5.726562 -0.148438 4.59375 -0.765625 C 3.46875 -1.390625 2.578125 -2.25 1.921875 -3.34375 C 1.273438 -4.4375 0.953125 -5.65625 0.953125 -7 C 0.953125 -8.34375 1.273438 -9.5625 1.921875 -10.65625 C 2.578125 -11.75 3.46875 -12.601562 4.59375 -13.21875 C 5.726562 -13.84375 7.003906 -14.15625 8.421875 -14.15625 C 9.816406 -14.15625 11.082031 -13.84375 12.21875 -13.21875 C 13.351562 -12.601562 14.238281 -11.753906 14.875 -10.671875 C 15.519531 -9.585938 15.84375 -8.363281 15.84375 -7 C 15.84375 -5.632812 15.519531 -4.410156 14.875 -3.328125 C 14.238281 -2.242188 13.351562 -1.390625 12.21875 -0.765625 C 11.082031 -0.148438 9.816406 0.15625 8.421875 0.15625 Z M 8.421875 -1.625 C 9.441406 -1.625 10.363281 -1.851562 11.1875 -2.3125 C 12.007812 -2.78125 12.65625 -3.425781 13.125 -4.25 C 13.601562 -5.070312 13.84375 -5.988281 13.84375 -7 C 13.84375 -8.007812 13.601562 -8.925781 13.125 -9.75 C 12.65625 -10.570312 12.007812 -11.210938 11.1875 -11.671875 C 10.363281 -12.140625 9.441406 -12.375 8.421875 -12.375 C 7.390625 -12.375 6.457031 -12.140625 5.625 -11.671875 C 4.789062 -11.210938 4.132812 -10.570312 3.65625 -9.75 C 3.1875 -8.925781 2.953125 -8.007812 2.953125 -7 C 2.953125 -5.988281 3.1875 -5.070312 3.65625 -4.25 C 4.132812 -3.425781 4.789062 -2.78125 5.625 -2.3125 C 6.457031 -1.851562 7.390625 -1.625 8.421875 -1.625 Z M 8.421875 -1.625 "/></g></g></g><g fill="#f3f2f0" fill-opacity="1"><g transform="translate(201.166749, 356.499997)"><g><path d="M 14.140625 -14 L 14.140625 0 L 12.5 0 L 4.09375 -10.4375 L 4.09375 0 L 2.09375 0 L 2.09375 -14 L 3.734375 -14 L 12.140625 -3.5625 L 12.140625 -14 Z M 14.140625 -14 "/></g></g></g><g fill="#f3f2f0" fill-opacity="1"><g transform="translate(217.88034, 356.499997)"><g><path d="M 6.1875 0.15625 C 5.125 0.15625 4.101562 -0.00390625 3.125 -0.328125 C 2.144531 -0.648438 1.375 -1.070312 0.8125 -1.59375 L 1.5625 -3.15625 C 2.09375 -2.675781 2.773438 -2.285156 3.609375 -1.984375 C 4.441406 -1.691406 5.300781 -1.546875 6.1875 -1.546875 C 7.34375 -1.546875 8.207031 -1.738281 8.78125 -2.125 C 9.351562 -2.519531 9.640625 -3.046875 9.640625 -3.703125 C 9.640625 -4.179688 9.484375 -4.566406 9.171875 -4.859375 C 8.859375 -5.160156 8.46875 -5.390625 8 -5.546875 C 7.539062 -5.710938 6.894531 -5.894531 6.0625 -6.09375 C 5.007812 -6.351562 4.160156 -6.609375 3.515625 -6.859375 C 2.867188 -7.109375 2.3125 -7.492188 1.84375 -8.015625 C 1.382812 -8.546875 1.15625 -9.257812 1.15625 -10.15625 C 1.15625 -10.90625 1.351562 -11.578125 1.75 -12.171875 C 2.144531 -12.773438 2.738281 -13.253906 3.53125 -13.609375 C 4.332031 -13.972656 5.328125 -14.15625 6.515625 -14.15625 C 7.347656 -14.15625 8.160156 -14.046875 8.953125 -13.828125 C 9.753906 -13.617188 10.441406 -13.316406 11.015625 -12.921875 L 10.359375 -11.3125 C 9.773438 -11.6875 9.148438 -11.96875 8.484375 -12.15625 C 7.816406 -12.351562 7.160156 -12.453125 6.515625 -12.453125 C 5.378906 -12.453125 4.53125 -12.242188 3.96875 -11.828125 C 3.40625 -11.421875 3.125 -10.890625 3.125 -10.234375 C 3.125 -9.753906 3.28125 -9.363281 3.59375 -9.0625 C 3.914062 -8.769531 4.3125 -8.539062 4.78125 -8.375 C 5.257812 -8.207031 5.90625 -8.03125 6.71875 -7.84375 C 7.769531 -7.582031 8.613281 -7.328125 9.25 -7.078125 C 9.894531 -6.828125 10.445312 -6.441406 10.90625 -5.921875 C 11.363281 -5.398438 11.59375 -4.695312 11.59375 -3.8125 C 11.59375 -3.082031 11.394531 -2.414062 11 -1.8125 C 10.601562 -1.207031 9.992188 -0.726562 9.171875 -0.375 C 8.359375 -0.0195312 7.363281 0.15625 6.1875 0.15625 Z M 6.1875 0.15625 "/></g></g></g><g fill="#f3f2f0" fill-opacity="1"><g transform="translate(230.775439, 356.499997)"><g><path d="M 8.359375 0.15625 C 6.960938 0.15625 5.695312 -0.148438 4.5625 -0.765625 C 3.4375 -1.390625 2.550781 -2.242188 1.90625 -3.328125 C 1.269531 -4.410156 0.953125 -5.632812 0.953125 -7 C 0.953125 -8.363281 1.269531 -9.585938 1.90625 -10.671875 C 2.550781 -11.753906 3.441406 -12.601562 4.578125 -13.21875 C 5.710938 -13.84375 6.976562 -14.15625 8.375 -14.15625 C 9.46875 -14.15625 10.46875 -13.972656 11.375 -13.609375 C 12.28125 -13.242188 13.054688 -12.703125 13.703125 -11.984375 L 12.40625 -10.71875 C 11.34375 -11.820312 10.023438 -12.375 8.453125 -12.375 C 7.421875 -12.375 6.484375 -12.140625 5.640625 -11.671875 C 4.796875 -11.210938 4.132812 -10.570312 3.65625 -9.75 C 3.1875 -8.925781 2.953125 -8.007812 2.953125 -7 C 2.953125 -5.988281 3.1875 -5.070312 3.65625 -4.25 C 4.132812 -3.425781 4.796875 -2.78125 5.640625 -2.3125 C 6.484375 -1.851562 7.421875 -1.625 8.453125 -1.625 C 10.015625 -1.625 11.332031 -2.179688 12.40625 -3.296875 L 13.703125 -2.046875 C 13.054688 -1.316406 12.273438 -0.765625 11.359375 -0.390625 C 10.453125 -0.0234375 9.453125 0.15625 8.359375 0.15625 Z M 8.359375 0.15625 "/></g></g></g><g fill="#f3f2f0" fill-opacity="1"><g transform="translate(245.709737, 356.499997)"><g><path d="M 2.09375 -14 L 4.09375 -14 L 4.09375 0 L 2.09375 0 Z M 2.09375 -14 "/></g></g></g><g fill="#f3f2f0" fill-opacity="1"><g transform="translate(252.387295, 356.499997)"><g><path d="M 12.265625 -1.734375 L 12.265625 0 L 2.09375 0 L 2.09375 -14 L 11.984375 -14 L 11.984375 -12.265625 L 4.09375 -12.265625 L 4.09375 -7.953125 L 11.125 -7.953125 L 11.125 -6.265625 L 4.09375 -6.265625 L 4.09375 -1.734375 Z M 12.265625 -1.734375 "/></g></g></g><g fill="#f3f2f0" fill-opacity="1"><g transform="translate(266.26202, 356.499997)"><g><path d="M 14.140625 -14 L 14.140625 0 L 12.5 0 L 4.09375 -10.4375 L 4.09375 0 L 2.09375 0 L 2.09375 -14 L 3.734375 -14 L 12.140625 -3.5625 L 12.140625 -14 Z M 14.140625 -14 "/></g></g></g><g fill="#f3f2f0" fill-opacity="1"><g transform="translate(282.975611, 356.499997)"><g><path d="M 4.875 -12.265625 L 0.078125 -12.265625 L 0.078125 -14 L 11.65625 -14 L 11.65625 -12.265625 L 6.859375 -12.265625 L 6.859375 0 L 4.875 0 Z M 4.875 -12.265625 "/></g></g></g><g fill="#f3f2f0" fill-opacity="1"><g transform="translate(295.190988, 356.499997)"><g><path d="M 12.265625 -1.734375 L 12.265625 0 L 2.09375 0 L 2.09375 -14 L 11.984375 -14 L 11.984375 -12.265625 L 4.09375 -12.265625 L 4.09375 -7.953125 L 11.125 -7.953125 L 11.125 -6.265625 L 4.09375 -6.265625 L 4.09375 -1.734375 Z M 12.265625 -1.734375 "/></g></g></g></svg>